<svg xmlns="http://www.w3.org/2000/svg" width="612" height="792" viewBox="0 0 612 792"><g fill="#868585"><path d="M288.502 405.51L303 391.013V379l-15.984 16.083H282V404h5zM295.555 412.599l7.445 7.484v-14.93z"/></g><path fill="#868585" d="M311.34 396.813c.03.491.051 1.005.051 1.562 0 7.702-2.307 8.969-2.307 8.969s4.646-2.599 4.646-9c0-1.27-.22-2.381-.564-3.356l-1.826 1.825zM316.973 391.181c.586 1.701 1.027 4.051 1.027 7.319 0 9.875-2.958 11.5-2.958 11.5S321 406.667 321 398.459c0-3.734-1.45-6.433-3.029-8.276l-.998.998zM320.586 377.664l2.829 2.829-38 38-2.828-2.83z"/></svg>