<?xml version="1.0" standalone="no"?>
<!DOCTYPE svg PUBLIC "-//W3C//DTD SVG 1.1//EN" "http://www.w3.org/Graphics/SVG/1.1/DTD/svg11.dtd" >
<svg xmlns="http://www.w3.org/2000/svg">
<metadata></metadata>
<defs>
<font id="linux_libertine_oitalic" horiz-adv-x="909" >
<font-face units-per-em="2048" ascent="1638" descent="-410" />
<missing-glyph horiz-adv-x="512" />
<glyph unicode="&#x2e;&#x2e;&#x2e;" horiz-adv-x="1533" d="M129 72q0 44 37 83.5t90 39.5q40 0 67 -26.5t27 -64.5q0 -48 -37.5 -87.5t-89.5 -39.5q-40 0 -67 27.5t-27 67.5zM672 72q0 44 37 83.5t90 39.5q40 0 67 -26.5t27 -64.5q0 -48 -37.5 -87.5t-89.5 -39.5q-40 0 -67 27.5t-27 67.5zM1212 72q0 44 37 83.5t90 39.5 q40 0 67.5 -26.5t27.5 -64.5q0 -48 -37.5 -87.5t-89.5 -39.5q-40 0 -67.5 27.5t-27.5 67.5z" />
<glyph unicode="&#xfb01;" horiz-adv-x="1155" d="M-161 -393q0 30 18.5 52t57.5 22q31 0 59 -21t44 -46q8 -12 12.5 -18t14.5 -11t23 -5q23 0 50.5 18t44.5 45q39 61 71 218t64 389.5t48 318.5l43 230h-162q-12 0 -12 4q0 11 8 35q8 31 60 34l123 7q66 324 213 455q111 98 272 98q73 0 145 -37.5t115 -90.5t43 -100 q0 -49 -30.5 -80.5t-67.5 -31.5q-38 0 -62 25.5t-24 68.5q0 64 -5 84.5t-32 56.5q-14 19 -44 28t-59 9q-123 0 -198 -131q-22 -40 -40.5 -87t-30 -91.5t-18.5 -77.5t-12.5 -65t-5.5 -33h223q78 0 173.5 7t111.5 7q42 0 42 -43q0 -16 -5.5 -43.5t-18 -77.5t-17.5 -73 l-93 -402q-23 -100 -23 -107q0 -34 21 -34q18 0 57.5 25t75.5 67q35 0 47 -35q-148 -190 -284 -190q-84 0 -84 67q0 29 34 189l97 421q16 65 16 103q0 15 -13.5 22.5t-41.5 11.5q-33 5 -113 5h-219l-6 -35q-135 -768 -226 -1016q-24 -66 -53 -106q-46 -64 -108.5 -96.5 t-128.5 -32.5q-97 0 -143.5 27.5t-46.5 66.5z" />
<glyph unicode="&#xfb02;" horiz-adv-x="1167" d="M-161 -393q0 30 18.5 52t57.5 22q27 0 54 -18t42 -39q1 -1 5.5 -8.5t5.5 -8.5t5 -7t6 -7t6.5 -5t8 -5t9 -2t11.5 -1q23 0 49.5 17.5t43.5 44.5q12 19 23.5 45.5t21.5 62t18.5 66.5t17 79.5t14.5 79t14 85.5t11 79t10.5 80.5t9.5 69.5q16 125 84 510h-168q-12 0 -12 4 q0 11 8 35q8 31 57 34l136 7q46 322 210 456q117 95 281 95q53 0 116.5 -19.5t89.5 -42.5q66 37 132 62q25 0 25 -21q-22 -82 -52 -215l-209 -934q-26 -118 -26 -129q0 -29 24 -29q21 0 66 33.5t88 85.5q31 0 45 -35q-124 -206 -297 -206q-88 0 -88 90q0 38 31 174l209 934 q-1 48 -64 126q-47 58 -106 58q-90 0 -171 -91q-87 -96 -122 -276l-23 -116h226q14 0 14 -11l-10 -45q-3 -11 -20.5 -17.5t-33.5 -6.5h-190l-6 -35q-31 -179 -97 -498q-60 -293 -99.5 -429t-82.5 -195q-46 -64 -108.5 -96.5t-128.5 -32.5q-97 0 -143.5 27.5t-46.5 66.5z" />
<glyph unicode="&#xfb03;" horiz-adv-x="1677" d="M-161 -393q0 30 18.5 52t57.5 22q31 0 59 -21t44 -46q8 -12 12.5 -18t14.5 -11t23 -5q23 0 49.5 17.5t43.5 44.5q12 19 23.5 45.5t21.5 62t18.5 66.5t17 79.5t14.5 79t14 85.5t11 79t10.5 80.5t9.5 69.5q16 125 84 510h-168q-12 0 -12 4q0 11 8 35q8 31 57 34l136 7 q5 27 11 54.5t23.5 82.5t39 102t59 101t82 91.5t109 63t138.5 25.5q47 0 131 -25t122 -62q7 8 23 22q111 98 271 98q73 0 145 -37.5t115 -90.5t43 -100q0 -49 -30.5 -80.5t-67.5 -31.5q-38 0 -62 25.5t-24 68.5q0 64 -5 84.5t-32 56.5q-14 19 -43.5 28t-58.5 9 q-124 0 -199 -131q-22 -40 -40.5 -87t-30 -91.5t-18.5 -78t-12 -64.5t-5 -33h223q78 0 173 7t111 7q42 0 42 -43q0 -16 -5.5 -43.5t-18 -77.5t-17.5 -73l-93 -402q-22 -95 -22 -107q0 -34 20 -34q18 0 57.5 25t75.5 67q35 0 47 -35q-148 -190 -284 -190q-84 0 -84 67 q0 24 35 189l96 421q16 65 16 103q0 15 -13.5 22.5t-41.5 11.5q-33 5 -113 5h-219l-6 -35q-127 -721 -205 -934q-24 -66 -53 -106q-46 -64 -109 -97t-129 -33q-96 0 -142.5 28t-46.5 67q0 30 18.5 51.5t57.5 21.5q31 0 59 -20.5t44 -45.5q8 -12 12 -17.5t14 -11t23 -5.5 q23 0 51 18t45 45q39 61 66 199.5t52.5 344.5t43.5 300l43 230h-143h-18h-201l-6 -35q-31 -179 -97 -498q-60 -293 -99.5 -429t-82.5 -195q-46 -64 -108.5 -96.5t-128.5 -32.5q-97 0 -143.5 27.5t-46.5 66.5zM565 879h242h12h111q37 185 101 306q-23 17 -48 56 q-19 29 -33 45t-41.5 30.5t-62.5 14.5q-18 0 -39 -5.5t-52.5 -25.5t-59 -52.5t-55.5 -94.5t-46 -143z" />
<glyph unicode="&#xfb04;" horiz-adv-x="1699" d="M-201 -395q0 8 5 19.5t22 24.5t43 13q37 0 70 -41q10 -14 16 -21t19.5 -14.5t29.5 -7.5q22 0 38 7.5t40 31.5q14 14 29 44t31 77.5t30.5 96t31 118.5t29.5 123.5t29.5 133.5t26.5 127t25.5 125t21.5 107l47 230h-166q-10 0 -10 4q0 7 8 31q13 36 55 38l127 7 q4 23 7.5 39.5t14 57.5t22 73.5t32 78.5t44 81t58 72.5t73 61.5t90.5 40t110 16q54 0 128.5 -36.5t98.5 -88.5q36 52 82.5 88t90.5 52.5t76 23t58 6.5q52 0 129.5 -26t103.5 -50q66 37 132 62q25 0 25 -21q-22 -82 -52 -215l-209 -934q-26 -118 -26 -129q0 -29 24 -29 q21 0 66 33.5t88 85.5q31 0 45 -35q-124 -206 -297 -206q-88 0 -88 90q0 38 31 174l209 934q-1 48 -64 126q-19 23 -33 37t-42.5 28.5t-59.5 14.5q-20 0 -53 -15t-75.5 -57t-66.5 -100q-27 -60 -61 -202l-31 -131h221q13 0 13 -11l-8 -45q-2 -12 -20 -18t-36 -6h-188l-6 -33 q-64 -341 -143.5 -620t-151.5 -400q-104 -178 -252 -178q-164 0 -164 100q0 8 4.5 20.5t21.5 26t44 13.5q16 0 30 -8t19.5 -14t17.5 -21q29 -41 66 -41q23 0 39.5 7.5t38.5 29.5q29 29 61 116.5t65 229t54.5 243t52.5 258.5q5 28 8 41l45 230h-374l-9 -33 q-25 -100 -78.5 -321.5t-80 -324.5t-66 -228t-72.5 -187q-114 -203 -258 -203q-96 0 -134 31.5t-38 71.5zM553 879h371q37 176 90 288h-4q-42 0 -60 22.5t-28 65.5q-10 44 -30.5 68.5t-66.5 24.5q-18 0 -37.5 -6.5t-48.5 -28t-55 -56.5t-53 -99t-47 -148z" />
<glyph horiz-adv-x="2048" />
<glyph horiz-adv-x="2048" />
<glyph unicode="&#xd;" horiz-adv-x="2048" />
<glyph unicode=" "  horiz-adv-x="512" />
<glyph unicode="&#x09;" horiz-adv-x="512" />
<glyph unicode="&#xa0;" horiz-adv-x="512" />
<glyph unicode="!" horiz-adv-x="464" d="M178 63q0 3 1 9.5t1 9.5q9 44 47 76t82 32q40 0 66 -26t26 -64q0 -3 -1 -9t-1 -9q-8 -44 -45.5 -76.5t-83.5 -32.5q-40 0 -66 26t-26 64zM324 426v4q31 313 36 385q7 96 7 139q0 17 -1 46.5t-1 43.5q0 89 14 168q14 75 55 112.5t82 37.5q38 0 65 -29t27 -82q0 -25 -4 -39 q-10 -59 -28 -116t-46.5 -136t-48.5 -145q-69 -238 -96 -371q-11 -41 -37 -41q-24 0 -24 23z" />
<glyph unicode="&#x22;" horiz-adv-x="688" d="M336 872q4 327 6 345q6 36 43 69t82 33q59 0 59 -53q0 -11 -2 -15q-3 -15 -36 -107.5t-65 -177.5l-32 -85zM596 874q2 327 6 345q5 36 42 69t81 33q59 0 59 -53v-15q-3 -15 -36 -107.5t-65 -177.5l-32 -85z" />
<glyph unicode="#" horiz-adv-x="897" d="M115 375l32 98h187l74 225h-185l33 101h186l115 348h70l-117 -348h225l117 348h68l-117 -348h184l-33 -101h-184l-76 -225h185l-31 -98h-184l-119 -348h-68l117 348h-225l-117 -348h-68l115 348h-184zM401 473h228l73 225h-225z" />
<glyph unicode="$" horiz-adv-x="897" d="M115 -2q14 78 26 301l56 6q7 -102 62 -175.5t153 -84.5l97 496q-55 27 -92.5 51t-84 66t-64 101t-4.5 130q12 63 51.5 116t93.5 86.5t111 53.5t111 25l22 114h70l-22 -113q41 -2 123.5 -11t111.5 -5q-12 -77 -16 -293l-56 -8l-4 37q-10 104 -50 156.5t-121 60.5l-86 -438 q42 -17 75.5 -33.5t79.5 -49t74.5 -68t44 -88.5t4.5 -112q-4 -20 -9.5 -39.5t-20.5 -54t-34 -64t-51.5 -63.5t-72.5 -58.5t-98.5 -42t-126.5 -21.5l-28 -142h-69l27 142q-63 3 -129.5 23.5t-80.5 20.5t-32 -11t-41 -11zM397 897q-21 -114 142 -198l80 408q-79 -12 -142 -68 t-80 -142zM482 46q35 5 69 18t69.5 37t62.5 65t38 94q5 42 5.5 73t-12.5 58t-26 45t-35.5 34t-39.5 25.5t-40 18.5z" />
<glyph unicode="%" horiz-adv-x="1304" d="M209 -10l876 1028q-95 -39 -211 -39q-37 0 -86.5 13t-78.5 30q6 -24 6 -51q0 -52 -17 -113t-48 -118t-82.5 -94.5t-112.5 -37.5q-90 0 -138.5 67t-48.5 156q0 121 81 223.5t190 102.5q41 0 80 -15.5t55 -35.5q111 -51 219 -51q82 0 166 24.5t141 85.5l68 -43l-983 -1151z M373 803q0 -72 29 -103.5t65 -31.5q52 0 96 51t66 119.5t22 130.5q0 67 -28 95t-64 28q-47 0 -91 -47.5t-69.5 -114.5t-25.5 -127zM795 186q0 122 80 224t190 102q33 0 62 -9t55.5 -28.5t41.5 -57.5t15 -91q0 -54 -17.5 -116t-48.5 -118.5t-82.5 -93.5t-111.5 -37 q-87 0 -135.5 68.5t-48.5 156.5zM899 158q0 -72 28.5 -105t63.5 -33q54 0 98.5 53t66.5 121t22 128q0 37 -10 63.5t-26 38.5t-30 17t-27 5q-71 0 -128.5 -97t-57.5 -191z" />
<glyph unicode="&#x26;" horiz-adv-x="1443" d="M141 248q0 156 107 276.5t354 247.5q-55 135 -55 227q0 140 108.5 230t255.5 90q99 0 161.5 -49.5t62.5 -130.5q0 -54 -33.5 -110t-91 -105t-116.5 -88t-126 -74q2 -4 14.5 -32.5t27 -58.5t54.5 -105.5t97 -176.5q276 323 276 399q0 23 -25 23h-59q-11 0 -6 14l6 35l4 4 q106 -4 176 -4l180 4l3 -4l-7 -33q-3 -16 -20 -16h-57q-31 0 -58 -17t-62.5 -61t-71 -94t-103 -141.5t-138.5 -178.5l54 -92q34 -65 69.5 -100t63.5 -35q51 0 93 27.5t85 89.5l27 -16q-51 -103 -115.5 -157t-122.5 -54q-28 0 -49.5 4t-50 17t-56 43t-53.5 77l-47 78 q-96 -106 -196.5 -162.5t-221.5 -56.5q-155 0 -246.5 65t-91.5 201zM303 250q0 -102 56 -150.5t147 -48.5q53 0 97 13.5t88 45.5t78.5 65.5t88.5 94.5q-70 123 -141 259t-80 167q-40 -20 -69.5 -37t-72.5 -46.5t-73.5 -63.5t-59.5 -77.5t-44 -100.5t-15 -121zM696 1032 q0 -63 41 -188q262 156 262 299q0 51 -28 78.5t-82 27.5q-65 0 -129 -64.5t-64 -152.5z" />
<glyph unicode="'" horiz-adv-x="389" d="M315 872q5 327 9 345q5 36 41.5 69t80.5 33q31 0 45.5 -15t14.5 -38v-15q-3 -15 -36 -107.5t-65 -177.5l-32 -85z" />
<glyph unicode="(" horiz-adv-x="626" d="M176 315q0 85 17 201q49 278 210 514q160 247 390 418l30 -37q-189 -176 -305 -403q-120 -231 -166 -492q-26 -156 -26 -280q0 -111 18 -213q36 -229 162 -406l-43 -35q-178 184 -242 418q-45 148 -45 315z" />
<glyph unicode=")" horiz-adv-x="641" d="M37 -381q188 177 305 406q120 232 166 491q27 162 27 281q0 102 -19 213q-36 228 -162 405l43 35q177 -183 242 -418q45 -148 45 -315q0 -92 -16 -201q-53 -281 -211 -516q-166 -250 -389 -416z" />
<glyph unicode="*" horiz-adv-x="886" d="M373 1233v12q5 25 25 43.5t53 18.5q30 0 56 -17.5t58.5 -45t65.5 -42.5v23q0 31 -9.5 78t-9.5 65q0 4 1 11.5t1 11.5q6 33 28.5 56t49.5 23q26 0 41 -14t15 -41v-16q-5 -29 -37 -100t-39 -99q39 16 81 44.5t73 45.5t61 17q57 0 57 -54v-8q-12 -76 -153 -76q-64 0 -113 -8 q19 -27 56 -55.5t60 -52.5t23 -54q0 -10 -2 -16q-4 -26 -25.5 -42.5t-44.5 -16.5q-36 0 -53.5 33t-30 93.5t-24.5 86.5q-21 -28 -56 -91t-62.5 -92.5t-61.5 -29.5q-23 0 -37 14t-14 35v8q7 39 38 65.5t83.5 56.5t82.5 58q-33 8 -86 8q-75 0 -113 14t-38 50z" />
<glyph unicode="+" horiz-adv-x="1079" d="M211 424l16 100h357l61 357h100l-61 -357h354l-18 -100h-354l-64 -354h-100l63 354h-354z" />
<glyph unicode="," horiz-adv-x="448" d="M46 -223q79 18 146.5 76t67.5 102q0 17 -10 28.5t-21 15.5t-32 9q-70 18 -70 84q0 45 36.5 74t84.5 29t79 -36t31 -96q0 -35 -7.5 -71.5t-28 -79t-52.5 -77.5t-85.5 -64t-121.5 -41q-25 20 -17 47z" />
<glyph unicode="-" horiz-adv-x="681" d="M158 492q0 24 24.5 56t40.5 32h469q23 0 23 -25t-25 -61.5t-47 -36.5h-465q-20 0 -20 35z" />
<glyph unicode="." horiz-adv-x="448" d="M129 72q0 44 37 83.5t90 39.5q40 0 67 -26.5t27 -64.5q0 -48 -37.5 -87.5t-89.5 -39.5q-40 0 -67 27.5t-27 67.5z" />
<glyph unicode="/" horiz-adv-x="595" d="M0 -43l739 1440h84l-737 -1440h-86z" />
<glyph unicode="0" d="M199 294q-18 144 14 308q28 147 84 271.5t125 205t146 125.5t151 45q75 0 129 -37t84 -96q97 -183 37 -495q-27 -138 -74 -250.5t-100.5 -183.5t-114.5 -119t-115 -68t-102 -20q-114 0 -182 86q-64 84 -82 228zM347.5 248q4.5 -52 17 -98.5t41.5 -72.5t73 -26 q17 0 38 6.5t51 23.5t62.5 57.5t59.5 99.5q57 126 115 421q37 209 29.5 325t-48.5 159q-27 35 -81 35q-29 0 -58.5 -13t-66 -53t-70 -103.5t-68.5 -173.5t-63 -255q-10 -52 -17 -101.5t-13 -114t-1.5 -116.5z" />
<glyph unicode="1" d="M258 29.5q5 24.5 16 33.5q48 2 74.5 5.5t55 14t44 30.5t29 53t23.5 84l131 668q24 118 -17 118q-54 0 -180 -51q-23 20 -20 55q306 137 426 205q4 0 6 -0.5t3.5 -2.5t0.5 -7q-11 -36 -59 -274l-140 -711q-8 -44 -11 -72.5t1.5 -50t12.5 -32.5t29 -18.5t42.5 -9.5t60.5 -4 q7 -9 3 -33.5t-15 -33.5q-196 4 -239 4q-83 0 -275 -4q-7 9 -2 33.5z" />
<glyph unicode="2" d="M98 -4q19 99 81 189t227 235l174 149q104 92 158 177t73 184q12 74 7.5 122t-27.5 76t-48 39t-55 11q-97 0 -153.5 -39.5t-65.5 -85.5q-1 -11 -0.5 -16.5t3 -17t3.5 -15.5q4 -27 0 -43q-6 -31 -43 -56.5t-65 -25.5q-31 0 -50.5 23.5t-13.5 55.5q10 47 45 97.5t87.5 94 t127 71.5t152.5 28q62 0 116 -18t95.5 -54t58.5 -98t2 -141q-11 -56 -33.5 -103.5t-63.5 -94t-73.5 -77t-95.5 -83.5l-238 -199q-22 -18 -54 -48t-82 -93t-58 -107h350q53 0 91.5 43.5t84.5 153.5q37 7 55 -11q-12 -51 -44.5 -149t-65.5 -174q-89 4 -152 4h-344z" />
<glyph unicode="3" d="M127 117q5 25 36 48t62 23q48 0 74 -53q1 -2 6 -14t6.5 -15t7.5 -13.5t11 -14t14.5 -10.5t20 -9.5t26 -5t33.5 -2.5q24 0 53.5 7.5t69 30t74 57t65 95.5t45.5 138q8 42 8.5 77.5t-6.5 61.5t-18 46t-28.5 33.5t-35.5 23t-41 14t-43 6.5t-43 2q-59 0 -94 -4l2 66 q140 20 245 111t122 177q19 92 -20 138.5t-109 46.5q-24 0 -53 -6.5t-64.5 -22t-63 -48.5t-36.5 -79q-22 -107 -97 -107q-32 0 -45 22t-8 48q4 23 20 53.5t51 68.5t81 69t117 52t153 21q137 0 199 -80q49 -64 30 -161q-16 -87 -74 -151.5t-186 -121.5l2 -4q37 -7 69.5 -20 t66.5 -38t53 -60.5t29 -87t-5 -117.5q-26 -130 -107 -229.5t-190 -149t-227 -49.5q-61 0 -122.5 16.5t-102.5 49t-33 71.5z" />
<glyph unicode="4" d="M150 438q179 220 374 444.5t312 344.5q18 22 34 22h64l4 -4q-9 -23 -43 -198l-117 -598h164q30 0 23 -33q-3 -19 -26.5 -41.5t-43.5 -22.5h-135l-37 -188q-8 -44 2.5 -64.5t31 -26t68.5 -9.5q11 -1 17 -1q7 -9 1.5 -33.5t-16.5 -33.5q-126 4 -213 4q-107 0 -233 -4 q-7 9 -2 33.5t16 33.5q89 6 118 19q48 21 60 82l37 188h-401q-17 0 -29 6.5t-17.5 14.5t-8.5 22t-3.5 22t-0.5 21zM254 449h375l114 589q-186 -207 -489 -589z" />
<glyph unicode="5" d="M135 131q6 30 34 53t56 23q54 0 88 -66q3 -5 11 -20.5t12 -22t13.5 -18t18.5 -17t23.5 -10t32.5 -4.5q91 0 173.5 97t109.5 241q31 159 -17.5 235t-150.5 76q-125 0 -260 -49l182 590q113 -10 211 -10q114 0 325 22l13 -8l-58 -139q-123 -12 -209 -12q-65 0 -227 18 l-104 -342q92 33 198 33q81 0 142.5 -31t94.5 -83t46 -120t-4 -143q-37 -194 -179 -320.5t-325 -126.5q-57 0 -118 20.5t-100.5 57t-31.5 76.5z" />
<glyph unicode="6" d="M168.5 317q0.5 72 17.5 158q24 125 97 257t184 239q104 103 217.5 169t267.5 111q19 -14 13 -53q-101 -37 -188.5 -93t-152.5 -123.5t-112 -135.5t-83 -142q101 44 196 44q78 0 136.5 -18t92.5 -49t53.5 -73.5t19.5 -91.5t-9 -102q-14 -70 -49.5 -143t-90.5 -140.5 t-136 -110.5t-173 -43q-35 0 -68 5.5t-68.5 20.5t-64 38.5t-52 63t-36 90t-12 122.5zM328.5 291q-1.5 -76 10.5 -121.5t38.5 -73t56.5 -37.5t70 -10q77 0 143.5 84t97.5 244q7 34 8.5 70.5t-6.5 78.5t-26.5 74.5t-57.5 54t-94 21.5q-93 0 -172 -47q-32 -81 -47 -160 q-20 -102 -21.5 -178z" />
<glyph unicode="7" d="M281 -12q171 272 657 1108h-352q-28 0 -49 -5t-48 -22t-54 -54.5t-54 -96.5q-33 -3 -62 6q4 10 22 62.5t25 73t20.5 61.5t21.5 71.5t14 58.5q2 6 8 6q8 -2 31 -15t63 -13h404q78 0 155 22l27 -24q-54 -91 -103 -175.5t-97 -170t-82 -146t-80.5 -147t-68 -126.5 t-69.5 -131.5t-60 -114.5t-63.5 -123t-58.5 -113l-135 -7z" />
<glyph unicode="8" d="M160 299q13 64 54 128.5t108 117.5t180 112l-45 33q-79 59 -107.5 125t-11.5 152q24 121 130.5 201.5t254.5 80.5q142 0 209 -71.5t45 -184.5q-9 -46 -41.5 -92t-79 -82.5t-90 -63t-86.5 -46.5l121 -88q135 -97 98 -289q-10 -48 -34 -96.5t-64.5 -94.5t-92 -82 t-119.5 -57.5t-143 -21.5q-160 0 -238 82.5t-48 236.5zM291 183.5q12 -50.5 41.5 -78t63 -41t69.5 -13.5q39 0 77 9.5t81.5 33t77 74.5t47.5 123q30 162 -119 272l-82 58q-68 -41 -119 -89.5t-78 -94t-40 -77.5t-19 -61q-12 -65 0 -115.5zM485 1006q-11 -58 6 -108t91 -107 l53 -39q183 123 205 243q15 78 -19 130.5t-123 52.5q-86 0 -142.5 -49t-70.5 -123z" />
<glyph unicode="9" d="M219 29q101 37 188.5 93.5t152.5 123.5t112 135.5t83 142.5q-103 -45 -196 -45q-78 0 -136.5 18t-92.5 49t-53.5 73.5t-19.5 91.5t9 102q11 55 35 113t64 116.5t90 104t118 74t142 28.5q35 0 67.5 -5.5t68 -20.5t64 -38.5t51.5 -62.5t35 -89.5t11.5 -122.5t-17.5 -158 q-24 -127 -96 -258t-182 -238q-104 -103 -218 -169.5t-268 -111.5q-19 13 -12 54zM428 779.5q-1 -36.5 7 -78.5t27 -74.5t58 -54t94 -21.5q94 0 173 47q32 81 47 160q20 102 21.5 178t-10.5 121.5t-38.5 73t-56.5 37.5t-70 10q-77 0 -145 -84t-99 -244q-7 -34 -8 -70.5z" />
<glyph unicode=":" horiz-adv-x="448" d="M164 174q0 44 37 83.5t90 39.5q40 0 67 -26t27 -64q0 -48 -37.5 -87.5t-89.5 -39.5q-40 0 -67 27t-27 67zM258 711q0 44 37 83.5t90 39.5q40 0 67 -26.5t27 -64.5q0 -48 -37.5 -87.5t-89.5 -39.5q-40 0 -67 27.5t-27 67.5z" />
<glyph unicode=";" horiz-adv-x="448" d="M65 -223q79 18 146.5 76t67.5 102q0 17 -10.5 28.5t-21.5 15.5t-32 9q-70 18 -70 84q0 45 36.5 74t84.5 29t79.5 -36t31.5 -96q0 -35 -7.5 -71.5t-28 -79t-52.5 -77.5t-85.5 -64t-121.5 -41q-25 20 -17 47zM256 711q0 44 37 83.5t90 39.5q40 0 67 -26.5t27 -64.5 q0 -48 -37.5 -87.5t-89.5 -39.5q-40 0 -67 27.5t-27 67.5z" />
<glyph unicode="&#x3c;" horiz-adv-x="997" d="M178 440l17 99l849 288l-18 -102l-690 -236l606 -237l-16 -102z" />
<glyph unicode="=" horiz-adv-x="1079" d="M186 295l19 100h811l-19 -100h-811zM231 551l19 100h811l-19 -100h-811z" />
<glyph unicode="&#x3e;" horiz-adv-x="997" d="M127 145l16 103l691 235l-607 238l19 102l747 -291l-16 -98z" />
<glyph unicode="?" horiz-adv-x="829" d="M299 1065q0 39 24.5 86t70.5 92.5t124.5 76t173.5 30.5q138 0 220.5 -67t82.5 -179q0 -81 -34 -150t-87 -116t-107 -84t-105 -73.5t-70 -64.5q-50 -68 -66 -149l-14 -90q-3 -21 -31 -21q-11 0 -17 5.5t-5 15.5l16 94q15 78 43 140t60.5 101t68.5 72t69.5 61.5t60.5 59.5 t43 76.5t16 103.5q0 85 -49.5 144t-124.5 59q-99 0 -156 -42t-57 -93q0 -18 10 -35q6 -12 6 -28q0 -34 -26 -63.5t-70 -29.5q-28 0 -49 15.5t-21 52.5zM338 72q0 44 37 83.5t90 39.5q40 0 67 -26.5t27 -64.5q0 -48 -37.5 -87.5t-89.5 -39.5q-40 0 -67 27.5t-27 67.5z" />
<glyph unicode="@" horiz-adv-x="1697" d="M207 457q45 216 189 399t346.5 289t414.5 106q202 0 344.5 -88t200 -241.5t16.5 -343.5q-16 -74 -48 -144.5t-87.5 -140t-127 -121.5t-174.5 -84.5t-222 -32.5q-36 0 -46.5 26.5t-2.5 57.5q8 40 55 129l-4 2q-82 -106 -161.5 -158.5t-135.5 -52.5q-54 0 -93 19 t-57.5 46.5t-27.5 64t-8 66.5t6 58q22 106 84 205.5t141 168.5t167.5 111t164.5 42q47 0 84 -24.5t43 -63.5l20 49l107 26l24 -10l-225 -528q-48 -115 -53 -137q-2 -9 1 -15t6.5 -8t6.5 -2q77 0 137.5 20.5t113.5 69.5t93 135t66 211q30 158 2.5 276t-99.5 196t-161 116.5 t-183 38.5q-89 0 -179.5 -25t-181.5 -80.5t-167.5 -135.5t-137.5 -197t-91 -258q-15 -69 -20.5 -138.5t0.5 -144.5t25 -141.5t57.5 -127t93 -104t137 -69t184.5 -25.5q225 0 411 135l19 -37q-118 -82 -225.5 -124t-255.5 -42q-221 0 -372 104.5t-206 282t-8 394.5zM727 332 q-39 -189 109 -189q49 0 128.5 77t145.5 190q34 53 67 120.5t44 116.5q12 57 -17.5 93t-81.5 36q-33 0 -86.5 -20t-101.5 -62q-159 -137 -207 -362z" />
<glyph unicode="A" horiz-adv-x="1366" d="M6 0l6 39q3 16 19 16q71 5 118.5 35t100.5 119l645 1065q25 42 42 58t38 16q20 0 28 -14.5t13 -47.5l188 -1110q9 -60 36.5 -86.5t86.5 -32.5l21 -2q18 0 16 -16l-4 -39l-4 -4q-144 4 -232 4q-112 0 -260 -4l-2 4l4 39q1 16 17 16l57 4q100 7 100 69q0 5 -2 19l-51 347 h-409q-35 0 -50 -7t-26 -28l-172 -297q-15 -25 -15 -48q0 -49 74 -55l55 -4q15 0 13 -16l-4 -39l-7 -4q-144 4 -256 4q-34 0 -182 -4zM581 594q0 -14 48 -14h342l-84 546h-4l-297 -520q-5 -8 -5 -12z" />
<glyph unicode="B" horiz-adv-x="1140" d="M33 0l8 39q3 16 16 16l60 4q66 5 87.5 19.5t31.5 66.5l200 1031q5 25 5 36q0 27 -19 36.5t-72 13.5l-57 4q-12 0 -12 14l8 41l6 4q184 -4 248 -4q41 0 123 2t116 2q369 0 369 -240q0 -37 -8 -75q-14 -80 -82 -154.5t-154 -114.5v-4q111 -35 174 -105.5t63 -179.5 q0 -37 -7 -75q-11 -56 -34.5 -107.5t-69 -102.5t-107 -88t-154 -60t-205.5 -23q-100 0 -176.5 2t-103.5 2q-66 0 -250 -4zM394 131q0 -35 32 -50t117 -15q108 0 185 20.5t122 60t68 84.5t36 107q8 42 8 75q0 120 -81 193.5t-246 73.5h-135l-103 -520q-3 -16 -3 -29zM512 750 h145q283 0 330 235q8 42 8 72q0 54 -19 94.5t-51.5 62t-68 31.5t-74.5 10q-52 0 -84.5 -3t-52 -7.5t-30 -17.5t-14 -24t-7.5 -36z" />
<glyph unicode="C" horiz-adv-x="1261" d="M182 494q0 74 15 151q38 196 158.5 359t282 253.5t323.5 90.5q105 0 183 -22t132 -45.5t96 -25.5q-15 -135 -18 -317l-60 -8q-31 342 -370 342q-49 0 -109 -20.5t-128 -67.5t-128 -113t-110.5 -167t-73.5 -220q-17 -90 -17 -173q0 -92 20.5 -171t61.5 -142t109.5 -99 t157.5 -36q137 0 254.5 52.5t244.5 171.5q29 0 39 -31q-125 -135 -267 -205.5t-286 -70.5q-130 0 -230 41.5t-160 113.5t-90 162.5t-30 196.5z" />
<glyph unicode="D" horiz-adv-x="1366" d="M33 0l6 37q4 18 18 18l60 4q54 3 83 24t38 69l198 1019q5 23 5 37q0 30 -19.5 40t-71.5 14l-53 4q-17 0 -14 16l6 39l6 4q184 -4 248 -4q34 0 143.5 2t177.5 2q245 0 401 -158.5t156 -397.5q0 -65 -14 -138q-28 -145 -90.5 -259t-140 -183t-173.5 -114t-184 -62t-178 -17 q-117 0 -224.5 2t-129.5 2q-66 0 -250 -4zM392 123q0 -23 16.5 -34.5t59.5 -17t126 -5.5q88 0 163.5 13.5t151.5 49t134 92.5t104.5 149t69.5 212q18 92 18 184q0 80 -14.5 149.5t-49 133t-86 108.5t-130.5 71.5t-179 26.5q-41 0 -67.5 -2.5t-52.5 -10t-40.5 -24 t-19.5 -42.5l-201 -1026q-3 -15 -3 -27z" />
<glyph unicode="E" horiz-adv-x="1077" d="M23 0l8 41q5 14 18 14l60 4q57 4 83 24t35 64l199 1022q3 17 3 29q0 31 -20.5 45.5t-66.5 18.5l-57 4q-18 0 -13 14l9 41l4 4q184 -4 247 -4h498q47 0 94 8q9 0 9 -6q0 -18 -6 -130t-11 -167l-57 -10q-5 48 -11 78t-18.5 60.5t-31.5 47t-50 27t-74 10.5h-204 q-72 0 -86 -70l-82 -430h250q49 0 74.5 20.5t39.5 65.5l15 52q4 16 18 16h43l6 -8q-33 -119 -43 -185q-17 -88 -25 -178l-12 -6h-43q-7 0 -9.5 5.5t-0.5 10.5l4 52q1 6 1 17q0 34 -19.5 47.5t-65.5 13.5h-250l-100 -515q-2 -16 -2 -21q0 -26 15.5 -36t45.5 -10h267 q193 0 317 268l59 -10q-6 -14 -139 -342q-156 4 -250 4h-422q-65 0 -249 -4z" />
<glyph unicode="F" horiz-adv-x="935" d="M25 0l8 39q3 16 18 16l53 4q61 4 88 26t35 67l199 1017q3 17 3 30q0 31 -20 45t-67 18l-57 4q-18 0 -13 14l9 41l4 4q184 -4 247 -4h500q45 0 94 8q7 0 7 -6q0 -59 -17 -297l-57 -10q-5 48 -11 78t-18.5 60.5t-31.5 47t-50 27t-74 10.5h-204q-72 0 -86 -70l-82 -430h250 q49 0 74.5 20.5t39.5 65.5l15 52q4 16 18 16h43l6 -8q-33 -119 -43 -185q-17 -88 -25 -178l-12 -6h-43q-7 0 -9.5 5.5t-0.5 10.5l4 52q1 6 1 17q0 34 -19.5 47.5t-65.5 13.5h-250l-98 -510q-3 -15 -3 -28q0 -32 21.5 -46.5t71.5 -18.5l49 -4q18 0 15 -16l-9 -39l-4 -4 q-184 4 -252 4q-63 0 -247 -4z" />
<glyph unicode="G" horiz-adv-x="1359" d="M171 498q0 66 13 131q32 164 116.5 302t197 227.5t242 139.5t257.5 50q81 0 148.5 -14.5t103.5 -32t79 -32t81 -14.5q-18 -189 -18 -315l-62 -12q-5 57 -17.5 103.5t-39 93t-66.5 77.5t-103.5 50.5t-146.5 19.5q-203 0 -372.5 -168.5t-221.5 -433.5q-11 -61 -11 -122 q0 -94 26 -180t76.5 -157.5t135.5 -114.5t193 -43q83 0 166.5 25.5t141.5 73.5l61 313q3 15 3 26q0 30 -22 43t-73 17l-49 4q-16 0 -13 16l11 54l4 4q184 -4 248 -4t182 4l4 -4l-10 -54q-2 -12 -21 -16q-48 -5 -72 -22.5t-32 -67.5l-47 -238q-5 -32 20 -57 q-125 -94 -260 -142t-301 -48q-253 0 -402.5 146.5t-149.5 371.5z" />
<glyph unicode="H" horiz-adv-x="1378" d="M39 30q2 20 8 25l64 6q61 6 90 28t37 67l198 1009q3 14 3 26q0 27 -14 42q-20 22 -79 27l-70 6q-4 8 -1 30t8 29q180 -4 260 -4q61 0 245 4q6 -14 4 -33.5t-8 -25.5l-63 -6q-61 -6 -89.5 -28.5t-37.5 -66.5l-83 -422h641l83 422q3 14 3 26q0 27 -14 42q-20 22 -79 27 l-70 6q-4 8 -1.5 30.5t7.5 28.5q180 -4 260 -4q62 0 246 4q5 -10 5 -24q0 -5 -1 -9q-2 -20 -8 -26l-63 -6q-61 -6 -89.5 -28.5t-37.5 -66.5l-199 -1009q-3 -15 -3 -27q0 -27 14 -41q20 -22 79 -27l70 -6q4 -8 1.5 -30.5t-7.5 -28.5q-180 4 -261 4q-61 0 -245 -4 q-6 14 -4 33.5t8 25.5l63 6q61 6 90 28t37 67l99 501h-641l-99 -501q-3 -15 -3 -27q0 -27 14 -41q20 -22 79 -27l70 -6q4 -8 1.5 -30.5t-7.5 -28.5q-180 4 -260 4q-62 0 -246 -4q-5 10 -5 24q0 5 1 10z" />
<glyph unicode="I" horiz-adv-x="573" d="M39 30q2 20 8 25l64 6q61 6 90 28t37 67l198 1009q3 14 3 26q0 27 -14 42q-20 22 -79 27l-70 6q-4 8 -1 30t8 29q180 -4 260 -4q61 0 245 4q4 -10 4 -24v-9q-2 -20 -8 -26l-63 -6q-61 -6 -89.5 -28.5t-37.5 -66.5l-199 -1009q-3 -15 -3 -27q0 -27 14 -41q20 -22 79 -27 l70 -6q4 -8 1.5 -30.5t-7.5 -28.5q-180 4 -260 4q-62 0 -246 -4q-5 10 -5 24q0 5 1 10z" />
<glyph unicode="J" horiz-adv-x="847" d="M63 -289q0 28 20.5 55t57.5 27q34 0 56 -10.5t41 -36.5q10 -15 17 -38t13 -34.5t21 -11.5q99 0 173.5 143t119.5 412l67 401l-252 19v41l265 14l4 25q27 158 52 247t75 197l-2 8q-12 -6 -33 -6q-49 0 -109 25q-25 10 -79 36.5t-90.5 38t-76.5 11.5q-32 0 -53.5 -17.5 t-21.5 -39.5q0 -7 16 -22t32.5 -36t16.5 -43q0 -63 -67 -63q-37 0 -56.5 24.5t-19.5 65.5q0 33 15 68.5t45.5 69.5t85.5 55.5t126 21.5q15 0 30.5 -2t35 -7t32.5 -8t37 -12.5t34 -13t37 -16t32.5 -14.5t35.5 -16l29 -14q7 47 38 89t77 42q76 0 76 -57t-125 -141 q-13 -77 -35 -246t-22 -205q0 -32 19 -41t75 -14l-6 -51l-109 -10l-59 -359q-30 -179 -79.5 -310.5t-114.5 -209.5t-139 -115t-161 -37q-75 0 -136 34t-61 87z" />
<glyph unicode="K" horiz-adv-x="1304" d="M39 30q2 20 8 25l64 6q61 6 90 28t37 67l198 1009q3 14 3 26q0 27 -14 42q-20 22 -79 27l-70 6q-4 8 -1 30t8 29q180 -4 260 -4q61 0 245 4q6 -14 4 -33.5t-8 -25.5l-63 -6q-61 -6 -89.5 -28.5t-37.5 -66.5l-90 -454q92 5 174 80l401 360q60 57 60 82q0 23 -47 29l-39 4 q-16 0 -13 16l7 39l6 4q184 -4 227 -4q9 0 193 4l6 -4l-9 -39q-3 -16 -24 -16q-51 -6 -83.5 -14t-83.5 -35t-103 -74l-336 -309q-86 -79 -92 -101q-3 -26 14 -51l328 -532q26 -45 58.5 -66t76.5 -27l12 -2q16 -4 14 -16l-6 -39l-8 -4q-184 4 -203 4q-57 0 -139 -4l-2 4l2 12 q8 34 8 59q0 43 -20 79l-242 405q-44 78 -152 78l5 25l-99 -502q-3 -15 -3 -27q0 -27 14 -41q20 -22 79 -27l70 -6q4 -8 1.5 -30.5t-7.5 -28.5q-180 4 -260 4q-62 0 -246 -4q-5 10 -5 24q0 5 1 10z" />
<glyph unicode="L" horiz-adv-x="1062" d="M41 30q2 20 8 25l64 6q61 6 90 28.5t37 66.5l196 1009q3 14 3 26q0 27 -14 42q-20 22 -79 27l-70 6q-4 8 -1 30t8 29q180 -4 260 -4q61 0 245 4q6 -14 4 -33.5t-8 -25.5l-63 -6q-62 -6 -90.5 -28t-36.5 -67l-193 -983q-2 -10 -2 -27q0 -35 19.5 -55t56.5 -20h225 q180 0 301 268q15 4 32 -0.5t26 -13.5q-83 -205 -119 -338q-180 4 -233 4h-416q-62 0 -246 -4q-5 10 -5 24q0 5 1 10z" />
<glyph unicode="M" horiz-adv-x="1646" d="M33 0l4 39q2 16 20 16l54 4q73 5 102 117l289 1000q7 28 7 40q0 22 -15.5 33t-51.5 13l-55 4q-10 0 -13.5 3.5t-2.5 10.5l4 41l4 4l295 -2l200 -1042q3 -27 11 -27q5 0 22 29l621 1042h258l4 -4l-4 -41q-1 -12 -25 -14l-53 -4q-83 -6 -92 -86l-125 -998q-4 -32 -4 -45 q0 -34 13 -52.5t48 -21.5l54 -4q10 -1 14.5 -4.5t3.5 -11.5l-4 -39l-4 -4q-184 4 -221 4q-23 0 -211 -4l-4 4l4 39q1 14 20 16l53 4q38 3 60.5 38t27.5 81l123 916h-4l-653 -1084q-14 -22 -31 -22q-20 0 -26 22l-199 1063h-4l-258 -897q-9 -34 -9 -53q0 -60 54 -64l49 -4 q18 0 16 -16l-2 -39l-6 -4q-114 4 -180 4q-56 0 -174 -4z" />
<glyph unicode="N" horiz-adv-x="1363" d="M25 0l4 37q2 17 28 18l52 4q56 5 88.5 39.5t42.5 81.5l184 946q-2 44 -33.5 90t-75.5 50q-13 2 -21 5.5t-7 10.5l4 39l6 5h270l498 -910q54 -95 66 -107q7 -6 12 -6q8 0 12.5 13t11.5 49l152 776q3 15 3 31q0 83 -87 90l-49 4q-9 1 -17.5 5.5t-7.5 10.5l6 39l4 5 q184 -4 226 -5q29 0 213 5l4 -5l-4 -39q-1 -7 -7.5 -11.5t-11.5 -4.5l-55 -4q-55 -4 -87 -37.5t-42 -83.5l-213 -1098q-13 -63 -53 -63q-48 0 -70 49l-510 903q-40 67 -55 67q-19 0 -39 -100l-139 -719q-4 -22 -4 -31q0 -37 22 -61.5t66 -28.5l51 -4q13 -1 12 -16l-4 -39 l-4 -4q-184 4 -213 4q-41 0 -225 -4z" />
<glyph unicode="O" horiz-adv-x="1368" d="M179 480q0 69 16 155q39 199 146.5 361.5t263 257t327.5 94.5q227 0 371 -143t144 -380q0 -71 -15 -151q-40 -204 -146 -361t-264 -245t-344 -88q-223 0 -361 134.5t-138 365.5zM365 499q0 -209 105 -329.5t261 -120.5q173 0 316 158.5t196 427.5q21 112 21 205 q0 213 -100 325.5t-271 112.5q-70 0 -144 -35.5t-146 -106t-131.5 -191.5t-88.5 -275q-18 -92 -18 -171z" />
<glyph unicode="P" horiz-adv-x="1021" d="M33 0l8 39q3 16 18 16l52 4q60 5 89 24t36 62l200 1031q2 14 2 19q0 34 -21.5 49.5t-49.5 17.5l-76 4q-13 0 -10 12l8 43l6 4q144 -4 250 -4q44 0 140 9t118 9q88 0 155.5 -17.5t107.5 -45t66 -65.5t35 -74t9 -76q0 -33 -7 -66q-11 -56 -34 -110.5t-67.5 -111t-103 -99 t-145.5 -69.5t-190 -27q-87 0 -146 20l-88 -453q-3 -13 -3 -25q0 -31 22 -45t71 -16l72 -4q15 0 12 -16l-8 -39l-4 -4q-184 4 -268 4q-108 0 -252 -4zM496 657q33 -10 137 -10q146 0 235.5 74.5t120.5 236.5q12 60 12 106q0 206 -227 206q-99 0 -134.5 -22.5t-43.5 -71.5z " />
<glyph unicode="Q" horiz-adv-x="1368" d="M179 480q0 69 16 155q39 199 146.5 361.5t263 257t327.5 94.5q227 0 371 -143t144 -380q0 -71 -15 -151q-53 -269 -219 -452.5t-398 -228.5q-140 -36 -296 -139q21 3 38 3q73 0 148 -26.5t127 -57.5t118 -57.5t123 -26.5q48 0 99 18.5t88 56.5l28 -24 q-74 -87 -149 -127.5t-166 -40.5q-71 0 -134 20t-109.5 49t-90 57.5t-92 48.5t-98.5 20q-31 0 -74 -25q-45 -41 -94 -96l-68 41q21 27 47 50q151 151 343 247q-193 23 -308.5 154.5t-115.5 341.5zM365 499q0 -209 105 -329.5t261 -120.5q173 0 316 158.5t196 427.5 q21 112 21 205q0 213 -100 325.5t-271 112.5q-70 0 -144 -35.5t-146 -106t-131.5 -191.5t-88.5 -275q-18 -92 -18 -171z" />
<glyph unicode="R" horiz-adv-x="1136" d="M33 0l8 39q3 16 18 16l52 4q62 4 89.5 24.5t35.5 63.5l200 1029q2 14 2 19q0 34 -21.5 49.5t-49.5 17.5l-76 4q-13 0 -10 12l8 43l6 4q184 -4 248 -4q43 0 136 9t114 9q112 0 189.5 -20t129.5 -82q64 -78 64 -179q0 -28 -9 -77q-12 -61 -42 -116t-66 -92t-79 -68 t-77 -47.5t-65 -26.5l163 -430q32 -80 65 -119t93 -39l-6 -49q-32 -14 -86 -14q-151 0 -225 182l-140 356q-11 27 -29 42t-64.5 25.5t-125.5 10.5l-88 -449q-3 -15 -3 -26q0 -30 21.5 -44t71.5 -18l52 -4q15 0 12 -16l-6 -39l-6 -4q-184 4 -250 4t-250 -4zM496 666h98 q77 0 136.5 13.5t114.5 46.5t92.5 96.5t55.5 156.5q10 55 10 89q0 59 -19.5 100.5t-53.5 62.5t-70.5 30t-79.5 9q-98 0 -137 -23t-47 -71z" />
<glyph unicode="S" horiz-adv-x="929" d="M104 10q19 125 27 328l62 6q3 -291 278 -291q237 0 283 232q8 45 8 76q0 85 -45 140t-125 95q-50 25 -87 47t-80 55t-70.5 67.5t-46 81.5t-18.5 99q0 34 7 68q20 103 94 181.5t164 115.5t180 37q62 0 105 -8t61.5 -18.5t47 -22.5t61.5 -17q-2 -37 -9.5 -122.5 t-7.5 -141.5l-63 4q-4 47 -10 79.5t-21.5 68.5t-38.5 57.5t-63 36t-95 14.5q-97 0 -169 -58t-91 -151q-4 -20 -4 -42q0 -40 16.5 -78t40 -64.5t55.5 -51t56 -38.5t49 -25q59 -27 102.5 -54.5t86.5 -68t66 -95t23 -119.5q0 -39 -7 -77q-31 -156 -173 -266t-313 -110 q-89 0 -185.5 15t-150.5 15z" />
<glyph unicode="T" horiz-adv-x="1114" d="M227 1080q71 172 97 268q9 -1 61.5 -14t83.5 -13h684q32 0 57.5 4t56 11.5t54.5 11.5q-2 -28 -2 -57q0 -109 24 -230q-24 -10 -61 -10q-28 108 -62 149t-110 41h-111q-54 0 -77 -17.5t-33 -68.5l-195 -999q-3 -15 -3 -27q0 -27 14 -41q20 -22 79 -27l70 -6 q4 -8 1.5 -30.5t-7.5 -28.5q-180 4 -260 4q-62 0 -246 -4q-6 14 -4 33.5t8 25.5l64 6q61 6 89.5 28.5t37.5 66.5l194 1005q3 16 3 28q0 24 -10 35q-16 17 -75 17h-141q-82 0 -128.5 -37t-90.5 -138q-40 0 -62 14z" />
<glyph unicode="U" horiz-adv-x="1298" d="M250 1282l6 39l6 4q184 -4 248 -4q68 0 252 4l4 -4l-8 -39q-3 -16 -19 -16l-51 -4q-60 -4 -89 -25.5t-38 -65.5l-121 -620q-25 -137 -25 -200q0 -112 56 -185q82 -103 213 -103q70 0 128.5 16.5t101 43t78 67.5t58.5 82t42.5 95.5t30.5 98.5t22 101l117 600q3 17 3 29 q0 32 -21 47t-70 19l-54 4q-5 0 -9 4.5t-3 11.5l8 39l4 4q184 -4 215 -4q33 0 217 4l4 -4l-8 -39q-3 -16 -18 -16l-51 -4q-61 -4 -90 -27.5t-37 -67.5l-111 -563q-22 -116 -52 -205.5t-78.5 -171t-113.5 -134t-158.5 -83t-211.5 -30.5q-51 0 -98.5 8.5t-99 33.5t-89 63.5 t-62 104t-24.5 150.5q0 69 14 143l135 688q3 15 3 27q0 31 -22 45.5t-71 18.5l-51 4q-12 0 -12 11v5z" />
<glyph unicode="V" horiz-adv-x="1222" d="M224 1295.5q0 -20.5 9 -29.5q74 -9 96 -21q44 -23 56 -106l166 -1116q8 -48 37 -48q28 0 55 48l621 1110q65 117 213 133q9 9 9 29.5t-9 29.5q-152 -4 -193 -4q-61 0 -225 4q-9 -9 -9 -29.5t9 -29.5q83 -6 115 -33q16 -14 15 -35q0 -21 -15 -49l-478 -889q-8 -8 -14 0 l-131 911q-1 6 -1 12q0 37 38 57q44 22 110 26q9 9 9 29.5t-9 29.5q-136 -4 -247 -4q-54 0 -218 4q-9 -9 -9 -29.5z" />
<glyph unicode="W" horiz-adv-x="1861" d="M276 1295.5q0 20.5 9 29.5q148 -4 221 -4q110 0 246 4q9 -9 9 -29.5t-9 -29.5q-64 -4 -108 -26q-39 -20 -39 -60q0 -4 1 -9l70 -725l14 -135l78 131l403 753h89q14 -130 22 -200l66 -571l14 -125l76 141l383 709q14 25 14 44q0 24 -21 39q-38 27 -124 34q-9 9 -9 29.5 t9 29.5q164 -4 231 -4q65 0 201 4q9 -9 9 -29.5t-9 -29.5q-76 -8 -120.5 -41.5t-76.5 -91.5l-616 -1110q-15 -27 -23 -35t-20 -8q-15 0 -23.5 9.5t-11.5 35.5l-86 727q-4 39 -11 79t-9 59q-1 5 -10 5q-6 -11 -32.5 -59.5t-42.5 -77.5l-401 -733q-15 -28 -23 -36.5t-20 -8.5 q-16 0 -21 9t-8 36l-123 1093q-9 78 -43.5 106.5t-115.5 41.5q-9 9 -9 29.5z" />
<glyph unicode="X" horiz-adv-x="1286" d="M6 0l8 41q3 14 25 14q41 2 79.5 17.5t72.5 42.5t55.5 47.5t48.5 50.5l344 383q26 30 29 47q1 4 1 12q0 21 -18 50l-200 419q-60 126 -148 142q-29 8 -29 14l9 39l6 6q156 -4 203 -4q55 0 239 4q0 -6 2 -6l-6 -39q-3 -14 -12 -14l-66 -4q-47 -3 -47 -31q0 -16 21 -60 l163 -360q13 -23 19 -23q9 0 31 25l323 358q43 48 43 69q0 19 -37 22l-57 4q-15 0 -12 14l8 41l4 4q160 -4 195 -4q32 0 192 4l4 -4l-8 -41q0 -14 -21 -14q-43 -1 -77 -11t-64.5 -32t-48.5 -39.5t-51 -53.5l-328 -362q-34 -36 -39 -61q-1 -3 -1 -11q0 -20 20 -57l219 -430 q71 -147 178 -154q12 0 12 -14l-8 -41l-4 -4q-160 4 -207 4q-62 0 -246 -4l-6 4l8 41q3 14 15 14l41 4q37 4 51.5 10t14.5 20q0 15 -23 61l-185 385q-11 22 -24 22q-6 0 -35 -29l-332 -370q-38 -45 -38 -67q0 -27 48 -32l37 -4q11 -2 11 -14l-9 -41l-6 -4q-184 4 -221 4 q-48 0 -166 -4v4z" />
<glyph unicode="Y" horiz-adv-x="1130" d="M252 1296q-1 5 -1 10q0 13 3 19q114 -4 213 -4q59 0 219 4q3 -6 1.5 -29t-5.5 -30l-68 -6q-48 -4 -54.5 -22t11.5 -58l174 -494h9l323 494q29 41 29 58q0 18 -39 22l-66 6q-3 6 -1 29.5t6 29.5q156 -4 186 -4q46 0 164 4q2 -4 2 -12q0 -7 -2 -17q-3 -22 -8 -30l-54 -4 q-26 -2 -45.5 -9t-37 -24t-27.5 -29.5t-31 -42.5l-358 -522q-18 -29 -29 -86l-78 -393q-3 -14 -3 -26q0 -27 14 -42q20 -22 79 -27l70 -6q4 -8 1.5 -30.5t-7.5 -28.5q-180 4 -260 4q-62 0 -246 -4q-6 14 -4 33.5t8 25.5l63 6q61 6 90 28.5t37 66.5l72 374q7 37 7 52 q0 18 -7 36l-188 502q-32 85 -53.5 110t-71.5 32l-31 4q-5 8 -6 30z" />
<glyph unicode="Z" horiz-adv-x="1183" d="M84 24q0 27 27 54l979 1108q19 22 22 37q5 16 -16 16h-453q-43 0 -78.5 -13t-60 -31t-50.5 -54.5t-41.5 -65t-41.5 -80.5l-58 11q54 136 111 342q30 -2 66.5 -14.5t87.5 -12.5h630q32 3 74.5 11.5t54.5 8.5q42 0 42 -16q0 -36 -70 -115l-944 -1063q-21 -32 -23 -41 q-3 -13 7.5 -19.5t35.5 -6.5h459q54 0 99 20t81 60t62 83t55 105l59 -10q-80 -197 -119 -342q-196 4 -247 4h-717q-33 0 -33 24z" />
<glyph unicode="[" horiz-adv-x="684" d="M109 -410l319 1821h440l-14 -88h-301l-289 -1642h299l-14 -91h-440z" />
<glyph unicode="\" horiz-adv-x="657" d="M274 1430h91l272 -1528h-90z" />
<glyph unicode="]" horiz-adv-x="684" d="M-6 -410l14 91h301l289 1642h-299l14 88h441l-322 -1821h-438z" />
<glyph unicode="^" horiz-adv-x="1060" d="M354 711l369 620h86l147 -620h-90l-123 503l-299 -503h-90z" />
<glyph unicode="_" horiz-adv-x="995" d="M-45 -315l14 90h979l-16 -90h-977z" />
<glyph unicode="`" horiz-adv-x="802" d="M438 1366l8 20q3 1 21 12t31.5 18t38.5 13.5t51 6.5q19 0 28 -6l99 -256q6 -18 6 -31t-2 -19q-2 -8 -12.5 -15t-20.5 -7q-17 0 -53 41z" />
<glyph unicode="a" horiz-adv-x="995" d="M160 256q0 116 50 235.5t125.5 207.5t167.5 144t173 56q54 0 164 -12q18 -5 40.5 -5.5t56.5 0.5t46 1l-141 -637q-21 -102 -21 -115q0 -16 8.5 -22.5t16.5 -6.5q36 0 115 109q13 0 22.5 -5.5t13 -10.5t11.5 -17q-90 -198 -263 -198q-83 0 -83 92q0 45 20 112l27 86l-4 4 q-199 -294 -347 -294q-198 0 -198 276zM324 289q0 -197 90 -197q50 0 149 109.5t174 247.5q23 58 41 145t24 145l7 58q-61 39 -127 39q-67 0 -134.5 -55t-115.5 -137t-78 -178t-30 -177z" />
<glyph unicode="b" horiz-adv-x="978" d="M209 217l211 936q14 63 14 102q0 32 -10.5 45t-32.5 13l-63 4q-11 0 -11 10l7 49q63 4 154 21.5t132 32.5q25 0 25 -21q-21 -82 -51 -215l-113 -506l4 -2q30 35 40 46t42 45t52.5 48.5t53 35.5t64.5 29.5t66 8.5q67 0 111.5 -17.5t66 -53t29.5 -75.5t8 -98 q0 -150 -113.5 -324.5t-261.5 -275.5q-110 -75 -215 -75q-132 0 -182 67q-35 46 -34 109q0 29 7 61zM375 270q-17 -73 -17 -121q0 -98 70 -98q58 0 130 47.5t134.5 123t105 182t42.5 212.5q0 187 -109 187q-18 0 -37 -6.5t-35 -14.5t-37 -25.5t-34.5 -29.5t-37 -38 t-34.5 -38.5t-37 -43.5t-35 -42z" />
<glyph unicode="c" horiz-adv-x="796" d="M170 305q0 134 45 250.5t123 199.5q61 65 147 104.5t152 39.5q64 0 109 -13.5t68 -32t35.5 -48.5t14.5 -51t2 -52q0 -38 -32 -65t-74 -27q-25 0 -40 20t-15 46q0 25 10 43q10 17 10 39q0 31 -16.5 50t-33.5 23.5t-36 4.5q-124 0 -212.5 -133t-88.5 -353q0 -86 12 -128 t39 -75q36 -47 103 -47q76 0 139 40.5t131 116.5q14 0 27.5 -10t17.5 -25q-78 -110 -176 -176t-203 -66q-61 0 -113 26.5t-84 71.5q-61 85 -61 227z" />
<glyph unicode="d" horiz-adv-x="1001" d="M166 274q0 116 47.5 232.5t120 201.5t162 138t170.5 53q56 0 98.5 -32t62.5 -81h2l76 367q15 75 15 102q0 32 -10.5 45t-32.5 13l-64 4q-10 0 -10 10l6 49q63 4 154.5 21.5t132.5 32.5q24 0 24 -21q-20 -82 -51 -215l-217 -948q-21 -102 -21 -115q0 -16 8.5 -22.5 t16.5 -6.5q36 0 115 109q13 0 22.5 -5.5t13 -10.5t11.5 -17q-90 -198 -262 -198q-47 0 -65.5 27.5t-18.5 64.5q0 30 20 112l15 54l-7 4q-94 -137 -170.5 -199.5t-154.5 -62.5q-64 0 -108 29t-64.5 77t-28.5 93t-8 95zM330 307q0 -233 80 -233q58 0 138.5 90t158.5 233 q94 174 94 250q0 60 -37.5 119t-91.5 59q-68 0 -132.5 -50.5t-109.5 -127t-72.5 -168t-27.5 -172.5z" />
<glyph unicode="e" horiz-adv-x="821" d="M170 291q0 81 17.5 163.5t57.5 163t97 142.5t143 100.5t189 38.5q52 0 92 -16t61 -40.5t31 -49t10 -45.5q0 -67 -21 -107q-80 -150 -505 -233q-2 -16 -2 -70q0 -131 40.5 -183.5t115.5 -52.5q76 0 126.5 25.5t135.5 112.5q33 0 47 -33q-176 -227 -383 -227 q-122 0 -187 87t-65 224zM356 486q66 8 125 25.5t117.5 48t93.5 82t35 116.5q0 44 -22 61t-78 17q-184 0 -271 -350z" />
<glyph unicode="f" horiz-adv-x="643" d="M-161 -393q0 30 18.5 52t57.5 22q31 0 59 -21t44 -46q8 -12 12.5 -18t14.5 -11t23 -5q23 0 49.5 17.5t43.5 44.5q12 19 23.5 45.5t21.5 62t18.5 66.5t17 79.5t14.5 79t14 85.5t11 79t10.5 80.5t9.5 69.5q16 125 84 510h-168q-12 0 -12 4q0 11 8 35q8 31 57 34l136 7 q63 304 161 419q57 67 135.5 99.5t133.5 32.5q106 0 171 -44.5t65 -108.5q0 -22 -18.5 -45.5t-59.5 -23.5q-46 0 -66.5 28t-29.5 73q-7 30 -25 41.5t-54 11.5t-86 -40t-84 -124q-38 -84 -61 -203l-23 -116h226q14 0 14 -11l-10 -45q-3 -11 -20.5 -17.5t-33.5 -6.5h-190 l-6 -35q-31 -179 -97 -498q-60 -293 -99.5 -429t-82.5 -195q-46 -64 -108.5 -96.5t-128.5 -32.5q-97 0 -143.5 27.5t-46.5 66.5z" />
<glyph unicode="g" horiz-adv-x="976" d="M14 -279q0 44 27 89t72 83.5t88 67.5t90 55q-53 31 -53 99q0 50 34 114.5t76 108.5q-94 113 -94 242q0 64 18 119.5t55 101t100 72t146 26.5q128 0 201 -86q94 86 203 86q34 0 57 -21t23 -49q0 -29 -18 -48t-46 -19q-35 0 -57 35q-12 20 -31 20q-12 0 -43.5 -15.5 t-52.5 -35.5q41 -58 41 -170q0 -149 -87.5 -237.5t-223.5 -88.5q-82 0 -140 35q-2 -3 -9.5 -18t-11 -21.5t-9.5 -20.5t-9 -23t-5.5 -20.5t-2.5 -21.5q0 -28 15.5 -48t49.5 -34t66 -22.5t88.5 -22t94.5 -24.5q208 -62 208 -234q0 -282 -466 -282q-54 0 -105 5.5t-105 20 t-93.5 37t-65 60t-25.5 85.5zM152 -231q0 -87 86.5 -138t253.5 -51q125 0 187 47t62 113q0 53 -37.5 91t-125.5 79q-47 21 -131 49t-117 35q-32 -23 -51.5 -39t-54.5 -49t-53.5 -68t-18.5 -69zM406 578q0 -246 143 -246q149 0 149 264q0 108 -34.5 175t-98.5 67 q-49 0 -81.5 -19t-49 -57t-22.5 -80.5t-6 -103.5z" />
<glyph unicode="h" horiz-adv-x="1062" d="M182 35q0 9 4 26.5t11.5 45.5t10.5 40l224 1006q14 63 14 102q0 32 -10.5 45t-32.5 13l-63 4q-10 0 -10 10l6 49q63 4 154.5 21.5t132.5 32.5q24 0 24 -21q-21 -82 -51 -215l-124 -556q131 153 221 207t179 54q136 0 136 -164q0 -33 -27 -155l-78 -326q-22 -97 -22 -117 q0 -35 20 -35q16 0 55.5 29.5t77.5 73.5q35 0 47 -35q-148 -190 -284 -190q-84 0 -84 67q0 45 35 189l77 327q21 92 21 137q0 44 -18 60t-54 16q-54 0 -145 -79.5t-191 -209.5l-78 -340q-3 -14 -7.5 -39t-7.5 -39.5t-9.5 -33.5t-14.5 -29.5t-22 -18t-33 -7.5q-46 0 -65 14 t-19 41z" />
<glyph unicode="i" horiz-adv-x="565" d="M219 47q0 24 35 189l96 421q19 77 19 105q0 16 -9.5 28t-27.5 13l-82 6q-22 34 -2 57q22 3 68.5 9t71.5 9t58 6t56 3q42 0 42 -43q0 -16 -6 -44t-18 -76t-18 -74l-92 -402q-23 -100 -23 -117q0 -35 21 -35q16 0 55.5 29.5t77.5 73.5q35 0 47 -35q-148 -190 -285 -190 q-84 0 -84 67zM412 1167q0 40 29 69.5t69 29.5t69 -29.5t29 -69.5t-29 -69t-69 -29t-69 29t-29 69z" />
<glyph unicode="j" horiz-adv-x="530" d="M-160 -303q0 30 18.5 46.5t41.5 16.5q34 0 57 -14t32.5 -30t23.5 -30t32 -14q37 0 79.5 48t72.5 165q21 81 51.5 238t48.5 237l65 297q17 81 17 105q0 16 -9.5 28t-27.5 13l-82 6q-22 34 -2 57q185 27 254 27q42 0 42 -43q0 -16 -39 -194l-38 -177q-25 -118 -46 -206.5 t-48 -185t-54 -165t-62 -133t-72.5 -104t-85 -63t-101.5 -23.5q-72 0 -120 25.5t-48 72.5zM422 1167q0 40 29 69.5t69 29.5t69 -29.5t29 -69.5t-29 -69t-69 -29t-69 29t-29 69z" />
<glyph unicode="k" horiz-adv-x="995" d="M156 35q0 9 4 26.5t11.5 45.5t10.5 40l226 1006q14 63 14 102q0 32 -10.5 45t-32.5 13l-64 4q-10 0 -10 10l6 49q63 4 154.5 21.5t132.5 32.5q25 0 25 -21q-21 -82 -52 -215l-147 -637q48 0 121 63l82 70q111 99 200 154t138 55q100 0 100 -72q0 -43 -33.5 -72.5 t-60.5 -29.5q-37 0 -64 14.5t-51 14.5q-56 0 -197 -127l-106 -95v-8q25 -7 41 -15t29.5 -24t20.5 -28t22 -43q11 -22 45.5 -104.5t66.5 -145.5q1 -3 6.5 -13.5t7 -13.5t6 -11.5t7 -11.5l7.5 -9t8.5 -8.5t8.5 -5.5t11 -4t12 -1q17 0 46 27t60 71q16 0 24.5 -6t21.5 -20 q-102 -178 -207 -178q-61 0 -105.5 48t-96.5 162q-19 42 -50 135t-51 128q-18 33 -41 33q-26 0 -45 -7l-74 -332q-3 -13 -7 -38.5t-7 -39.5t-9.5 -33.5t-15 -30t-22.5 -18t-33 -7.5q-46 0 -65 14t-19 41z" />
<glyph unicode="l" horiz-adv-x="544" d="M190 70q0 46 29 174l203 909q14 63 14 102q0 32 -10.5 45t-32.5 13l-63 4q-11 0 -11 10l7 49q63 4 154 21.5t132 32.5q25 0 25 -21q-21 -82 -51 -215l-209 -934q-25 -114 -25 -129q0 -29 25 -29q20 0 64 33t87 86q31 0 45 -35q-124 -206 -297 -206q-86 0 -86 90z" />
<glyph unicode="m" horiz-adv-x="1603" d="M230 35q0 9 4 26.5t11.5 45.5t10.5 40l117 510q18 85 18 105q0 16 -9.5 28t-27.5 13l-82 6q-22 34 -2 57q22 3 68.5 9t71.5 9t58 6t56 3q42 0 42 -43q0 -12 -4.5 -35t-10 -44t-15.5 -57.5t-15 -57.5l-5 -19l4 -2q205 264 402 264q51 0 84.5 -40t33.5 -138q0 -52 -8 -96 q52 65 90.5 107.5t87 84.5t98 62t101.5 20q53 0 89 -44t36 -134q0 -68 -21 -150l-96 -364q-10 -38 -10 -82q0 -23 14 -23q27 0 67 37.5t77 96.5q39 0 45 -29q-95 -227 -303 -227q-24 0 -44.5 19.5t-20.5 48.5q0 41 36 185l80 322q18 71 18 145q0 44 -14 60t-45 16 q-52 0 -123.5 -66t-196.5 -241l-78 -322q-3 -14 -7.5 -39t-7.5 -39.5t-9.5 -33.5t-14.5 -29.5t-22 -18t-33 -7.5q-46 0 -64.5 14t-18.5 41q0 9 4 26.5t11.5 45.5t10.5 40l98 416q17 76 17 137q0 45 -11.5 60.5t-42.5 15.5q-36 0 -81.5 -25t-114 -95t-144.5 -179l-82 -330 q-4 -16 -9.5 -46.5t-10 -47t-13 -36t-24 -28.5t-37.5 -9q-46 0 -64.5 14t-18.5 41z" />
<glyph unicode="n" horiz-adv-x="1060" d="M182 35q0 9 4 26.5t11.5 45.5t10.5 40l116 510q18 85 18 105q0 16 -9.5 28t-27.5 13l-82 6q-22 34 -2 57q185 27 258 27q42 0 42 -43q0 -26 -12 -83.5t-31 -110.5l-7 -19l2 -2q134 157 216 210.5t167 53.5q135 0 135 -164q0 -38 -26 -155l-78 -326q-23 -102 -23 -117 q0 -35 21 -35q16 0 55.5 29.5t77.5 73.5q35 0 47 -35q-148 -190 -291 -190q-84 0 -84 67q0 45 35 189l78 327q26 108 26 139q0 44 -17.5 59t-53.5 15q-94 0 -316 -289l-78 -340q-3 -14 -7.5 -39t-7.5 -39.5t-9.5 -33.5t-14.5 -29.5t-22 -18t-33 -7.5q-88 0 -88 55z" />
<glyph unicode="o" horiz-adv-x="915" d="M160 332q0 76 19 153.5t60.5 152t99 132.5t142 93.5t183.5 35.5q73 0 126.5 -21t84 -53t48.5 -78.5t23.5 -88t5.5 -91.5q0 -177 -90 -328.5t-227 -220.5q-76 -38 -189 -38q-74 0 -129 27t-84 64.5t-46.5 90t-22 91t-4.5 79.5zM330 348q0 -146 46.5 -219.5t100.5 -73.5 q61 0 118.5 31t98.5 94q49 76 68.5 181t19.5 192q0 126 -31 188q-23 46 -51.5 68t-72.5 22q-77 0 -137 -48.5t-93.5 -124.5t-50 -156t-16.5 -154z" />
<glyph unicode="p" horiz-adv-x="1001" d="M-39 -444q0 12 21 16l38 6q50 8 75 29t34 63l211 940q-102 -84 -147 -143q-52 0 -64 43q40 50 95 97.5t141 109.5l26 121q3 13 7 39t7 40t9.5 33.5t15 30t22.5 18t33 7.5q47 0 66.5 -14t19.5 -42q0 -11 -5 -33t-11.5 -49t-9.5 -41q120 72 235 72q74 0 127 -23t81.5 -66.5 t41 -96.5t12.5 -121q0 -221 -165 -422q-155 -190 -355 -190q-42 0 -82.5 20t-66.5 47l-90 -377q-7 -20 -2 -35t10 -23.5t17.5 -14t21 -7.5t20.5 -4l39 -6q12 -3 12 -16v-41l-4 -4q-139 4 -219 4q-33 0 -86 -2.5t-90 -4.5l-37 -3l-4 4v39zM391 137q63 -86 152 -86 q57 0 114 40.5t99 106.5q56 87 87 185.5t31 175.5q0 246 -159 246q-36 0 -73.5 -12t-60 -24.5t-55.5 -33.5z" />
<glyph unicode="q" horiz-adv-x="1005" d="M166 301q0 102 34 197t90 166t125.5 125t142.5 82t138 28q120 0 197 -108l59 83q28 39 64 39q4 0 8.5 -1.5t9 -6.5t4.5 -12q0 -11 -4 -31l-274 -1192q-6 -15 -3 -26.5t4 -19.5t9 -14.5t12.5 -10t14.5 -6.5t15.5 -4.5t14.5 -2.5l39 -6q13 -2 13 -16v-41l-5 -4 q-139 4 -219 4q-33 0 -86.5 -2.5t-90.5 -4.5l-38 -3l-4 4v39q0 12 21 16l39 6q49 7 73 28t35 64l135 533l-6 2q-90 -125 -168 -175t-159 -50q-56 0 -99 19t-69 49.5t-43 73.5t-23 86t-6 93zM338 324q0 -62 10.5 -118t36.5 -98t64 -42q59 0 164 103t139 200q28 83 52.5 182 t24.5 125q0 64 -34.5 106.5t-89.5 42.5q-101 0 -186.5 -74t-133 -189t-47.5 -238z" />
<glyph unicode="r" horiz-adv-x="731" d="M182 35q0 14 4 31.5t11 41t11 39.5l114 510q14 57 14 105q0 16 -9.5 28t-27.5 13l-82 6q-22 34 -2 57q26 3 68.5 9t67.5 9.5t56 6t54 2.5q20 0 32 -13.5t12 -37.5q0 -32 -35 -186l-17 -72l8 -2q68 145 151.5 231t159.5 86q52 0 79.5 -29.5t27.5 -66.5q0 -44 -26.5 -79.5 t-66.5 -35.5q-31 0 -69 43q-21 25 -43 25q-57 0 -260 -369l-60 -240q-4 -14 -9 -39.5t-8.5 -40t-10 -33.5t-14.5 -29t-21.5 -17.5t-30.5 -7.5q-78 0 -78 55z" />
<glyph unicode="s" horiz-adv-x="722" d="M121 139q0 24 18.5 48t57.5 24q42 0 66.5 -33.5t29.5 -75.5q4 -32 24.5 -43.5t63.5 -11.5q76 0 125 36.5t49 115.5q0 99 -125 184q-178 120 -178 260q0 100 80 178t207 78q92 0 162.5 -53t70.5 -111q0 -29 -17.5 -49t-56.5 -20q-37 0 -63 32.5t-31 73.5q-8 59 -92 59 q-62 0 -95.5 -43t-33.5 -102q0 -39 18.5 -69t63.5 -60q135 -90 189.5 -164.5t54.5 -150.5q0 -116 -87 -189t-235 -73h-31q-103 6 -169 53t-66 106z" />
<glyph unicode="t" horiz-adv-x="628" d="M207 803q0 11 8 35q8 31 57 34l109 7l27 102q4 17 9.5 46t10 46.5t12.5 37t22.5 29t35.5 9.5q47 0 64.5 -13.5t17.5 -41.5q0 -11 -4.5 -31.5t-12.5 -51.5t-10 -40l-21 -92h203q11 -8 11 -24q0 -8 -3 -18q-8 -30 -28 -38h-201l-121 -539q-22 -95 -22 -129q0 -16 9 -22.5 t17 -6.5q27 0 62 26t102 101q36 0 45 -39q-51 -92 -138.5 -151t-158.5 -59q-50 0 -75 20.5t-25 73.5q0 40 29 168l124 557h-143q-12 0 -12 4z" />
<glyph unicode="u" horiz-adv-x="1067" d="M174 709q70 90 152.5 140t156.5 50q42 0 58 -17.5t16 -50.5q0 -17 -6.5 -47t-19 -76t-17.5 -65l-88 -334q-18 -71 -18 -131q0 -76 61 -76q71 0 149 94.5t205 309.5l60 225q4 16 9.5 46.5t10 47.5t13 36.5t24 28.5t37.5 9q47 0 66.5 -13.5t20.5 -41.5q0 -14 -13 -63 t-15 -60l-114 -467q-23 -102 -23 -117q0 -35 21 -35q16 0 55.5 29.5t77.5 73.5q35 0 47 -35q-148 -190 -285 -190q-43 0 -59.5 17.5t-16.5 49.5q0 61 35 189l23 79l-6 4q-61 -90 -103.5 -144.5t-93.5 -103t-101.5 -70t-109.5 -21.5t-98 40.5t-39 122.5q0 62 20 138l90 344 q27 102 27 116q0 35 -21 35q-17 0 -60.5 -30t-80.5 -72q-35 0 -47 35z" />
<glyph unicode="v" horiz-adv-x="966" d="M167 669q59 89 134.5 159.5t124.5 70.5q54 0 80 -57.5t49 -208.5l69 -477l9 -5q37 30 128 153q62 83 108 186t46 168q0 58 -43 123q-11 16 -11 42q0 76 95 76q108 0 108 -97q0 -90 -56 -218q-52 -122 -196 -323q-62 -90 -171 -211q-54 -60 -70 -69q-10 -6 -18 -6 q-43 0 -66 131l-86 500q-12 69 -22.5 97t-24.5 28q-26 0 -58 -24t-85 -75q-35 5 -44 37z" />
<glyph unicode="w" horiz-adv-x="1409" d="M167 669q59 89 134.5 159.5t124.5 70.5q54 0 79.5 -57t49.5 -209l70 -436l5 -3q43 67 126 223.5t141 291.5q46 22 100 24q18 -46 51 -182q45 -187 72 -354l15 -4q47 50 92 111q57 76 94 179.5t37 174.5q0 58 -43 123q-11 16 -11 42q0 76 95 76q107 0 107 -97 q0 -92 -55 -218q-86 -201 -175 -325q-77 -111 -154 -208q-61 -76 -94 -76q-15 0 -26 25.5t-21 94.5q-32 219 -81 433l-12 -2q-102 -222 -260 -471q-23 -36 -47.5 -58t-37.5 -22q-33 0 -56 131l-86 500q-12 69 -22.5 97t-24.5 28q-26 0 -58 -24t-85 -75q-35 5 -44 37z" />
<glyph unicode="x" horiz-adv-x="972" d="M72 57q0 34 22 56t56 22q32 0 59 -12q24 -12 55 -12q32 0 58 39l191 281l-73 202q-22 61 -36 86q-14 23 -57 23q-42 0 -134 -44q-21 21 -27 63q60 44 148.5 91t122.5 47q37 0 59 -31.5t49 -115.5l58 -181l102 148q73 105 131.5 142.5t138.5 37.5q38 0 70.5 -23t32.5 -59 q0 -34 -21.5 -61t-44.5 -27q-41 0 -67 21q-26 20 -62 20q-10 0 -24 -3t-35.5 -16.5t-36.5 -35.5l-156 -230l111 -329q26 -76 49 -76q37 0 102 84q36 -6 50 -39q-44 -74 -105 -109.5t-121 -35.5q-50 0 -72.5 24.5t-43.5 89.5l-79 249l-143 -204q-65 -94 -109.5 -126.5 t-99.5 -32.5q-42 0 -80 20.5t-38 56.5z" />
<glyph unicode="y" horiz-adv-x="1030" d="M100 -393q0 45 30 74.5t65 29.5q12 0 36.5 -9.5t34.5 -18.5q13 -11 36 -24t36 -13q23 0 81 64.5t118 162.5q6 13 6 53q0 81 -25 270q-36 284 -82 437q-18 62 -32 86q-14 23 -57 23q-42 0 -134 -44q-21 21 -27 63q60 44 148.5 91t122.5 47q38 0 61 -34t45 -117 q42 -174 60 -326t28 -360l14 -6q24 34 63 96t66 107l28 45q155 242 155 354q0 58 -43 123q-11 16 -11 42q0 76 95 76q107 0 107 -97q0 -92 -55 -218q-20 -47 -74 -140.5t-105.5 -176t-106.5 -169t-62 -98.5l-93 -143q-98 -151 -210 -243.5t-194 -92.5q-22 0 -48.5 6.5 t-51.5 27.5t-25 52z" />
<glyph unicode="z" horiz-adv-x="892" d="M111 14q11 39 127 172l492 543q-27 -4 -64 -4q-25 0 -102.5 9t-127.5 9q-72 0 -106 -22t-66 -92q-39 0 -55 16q28 95 87.5 174.5t111.5 79.5t217 -27q134 -28 161 -28q53 0 111 65l59 -30q-9 -15 -23 -33t-45 -53.5t-44 -51.5q-67 -83 -256 -286t-228 -246 q64 0 108.5 -11.5t64 -24.5t47 -24.5t61.5 -11.5q25 0 44 4t44.5 16.5t52 41t54.5 73.5q34 0 51 -20q-69 -158 -125.5 -215t-126.5 -57q-92 0 -176 51q-85 53 -156 53q-18 0 -52 -28.5t-65 -80.5q-18 2 -47 13q-18 3 -28 26z" />
<glyph unicode="{" horiz-adv-x="559" d="M168 500l2 10q143 39 180 248l70 387q27 166 98 237t240 74l-6 -29q-67 -19 -115 -84q-41 -53 -66 -182l-65 -370q-24 -135 -64 -193.5t-125 -91.5q55 -26 78 -65.5t23 -102.5q0 -46 -17 -143l-59 -336q-10 -68 -10 -109q0 -49 10 -82q10 -25 21.5 -41.5t26 -25.5t19 -11 t17.5 -6l-4 -28q-175 3 -215 73q-25 45 -25 119q0 38 15 141l63 359q10 58 10 96q0 130 -102 156z" />
<glyph unicode="|" horiz-adv-x="419" d="M82 -477l319 1812h91l-320 -1812h-90z" />
<glyph unicode="}" horiz-adv-x="559" d="M-18 -444l6 28q66 18 114 84q42 58 66 182l63 371q24 135 65 194.5t126 92.5q-55 24 -77.5 63t-22.5 103q0 55 16 143l57 336q13 70 13 111q0 46 -13 79q-12 32 -30.5 51.5t-27.5 23.5t-26 9l6 29q174 -3 215 -74q23 -48 23 -118q0 -65 -14 -142l-64 -356q-8 -49 -8 -98 q0 -130 100 -156v-10q-145 -39 -182 -246l-68 -389q-30 -167 -98 -238q-73 -70 -239 -73z" />
<glyph unicode="~" horiz-adv-x="919" d="M129 428q38 103 127.5 182.5t179.5 79.5q31 0 70 -21t70 -45.5t69.5 -45.5t69.5 -21q53 0 118.5 34t108.5 103l33 -12q-36 -77 -80 -130t-85.5 -76t-70.5 -31.5t-53 -8.5q-36 0 -75 21t-67.5 45.5t-67 45.5t-73.5 21q-57 0 -130.5 -41t-118.5 -106z" />
<glyph unicode="&#xa1;" horiz-adv-x="464" d="M61 -365q0 6 5 41q14 75 58.5 203.5t63.5 192.5q29 98 51.5 183t34 133t13.5 54q10 41 37 41q22 0 22 -20v-4q-1 -17 -15.5 -157t-21.5 -230q-4 -55 -4 -138v-92q0 -84 -12 -166q-14 -76 -55 -112.5t-84 -36.5q-38 0 -65.5 28t-27.5 80zM270 786q0 13 2 21q7 44 45 76 t82 32q41 0 67 -26t26 -66q0 -10 -3 -16q-7 -46 -45 -78.5t-82 -32.5q-40 0 -66 26t-26 64z" />
<glyph unicode="&#xa2;" horiz-adv-x="897" d="M190 451q0 134 45.5 250t123.5 199q54 57 129 95t140 47l29 154h70l-30 -153q52 -4 89.5 -19t56.5 -33t29.5 -46.5t12.5 -48t2 -48.5q0 -38 -32.5 -65t-74.5 -27q-25 0 -40 19.5t-15 45.5q0 25 10 43q10 17 10 39q0 62 -60 75l-142 -730q66 8 122.5 47t116.5 107 q14 0 27.5 -9.5t17.5 -24.5q-141 -197 -307 -235l-31 -158h-69l29 150q-61 0 -113 26.5t-84 71.5q-62 87 -62 228zM358 496q0 -86 12.5 -127.5t39.5 -75.5q27 -33 63 -43l142 726q-110 -24 -183.5 -152.5t-73.5 -327.5z" />
<glyph unicode="&#xa3;" horiz-adv-x="897" d="M39 14q12 60 117 111q16 11 41 33q76 66 116 163.5t66 223.5l10 53h-135l16 82h134l4 16q25 123 77 210t148 165q125 107 278 107q19 0 43 -5t48 -15t38 -28.5t9 -42.5q-6 -36 -33.5 -56.5t-63.5 -20.5q-29 0 -59 37q-15 15 -24 22.5t-26.5 15t-37.5 7.5 q-69 0 -137.5 -86.5t-92.5 -210.5l-22 -115h266l-14 -82h-268l-2 -10q-58 -309 -207 -408q-4 -3 -12 -7q7 1 20 1q82 0 126 -15t81 -42q49 -39 108 -39q49 0 111.5 24.5t105.5 71.5l33 -27q-43 -78 -121.5 -125t-181.5 -47q-51 0 -92 17t-90 49q-82 53 -142 53 q-45 0 -68.5 -16.5t-27.5 -36.5q-7 -37 -36.5 -56.5t-59.5 -19.5q-20 0 -33.5 15t-9.5 34z" />
<glyph unicode="&#xa4;" horiz-adv-x="897" d="M106 299l125 88q-47 74 -47 162q0 29 6 63q24 129 121 226l-90 84l90 79l74 -102q116 72 233 72q121 0 209 -76l115 113l66 -84l-129 -90q43 -67 43 -154q0 -28 -7 -68q-21 -122 -112 -221l90 -90l-88 -78l-76 107q-113 -76 -237 -76q-123 0 -209 74l-107 -111zM309 555 q0 -94 53 -154.5t146 -60.5q103 0 183.5 80t101.5 192q4 36 4 56q0 94 -53.5 155.5t-137.5 61.5q-104 0 -187 -80t-104 -191q-6 -30 -6 -59z" />
<glyph unicode="&#xa5;" horiz-adv-x="897" d="M150 260l16 80h269l25 129h-270l17 82h257l-136 475q-13 49 -32 71.5t-58 22.5h-15q-18 6 -16 17l6 37l4 4q40 -7 186 -7q125 0 179 7l2 -4l-6 -35q-5 -19 -19 -19h-27q-48 0 -55 -26q-2 -12 10 -64l123 -436l277 436q32 58 33 66q3 14 -7.5 20t-38.5 6h-30q-15 0 -10 15 l8 37l2 4q56 -7 160 -7q79 0 147 7l4 -4l-6 -35q-4 -17 -23 -17h-14q-81 0 -141 -96l-304 -475h269l-16 -82h-294l-25 -129h294l-16 -80h-294l-22 -113q-9 -48 12.5 -69t81.5 -21h56q15 0 12 -16l-6 -39l-6 -4q-176 4 -256 4l-267 -4l-2 4l7 39q3 16 20 16h53q61 0 91 22.5 t38 67.5l22 113h-269z" />
<glyph unicode="&#xa6;" horiz-adv-x="419" d="M92 -412l131 742h101l-131 -742h-101zM279 639l131 741h100l-131 -741h-100z" />
<glyph unicode="&#xa7;" horiz-adv-x="968" d="M167 -172q0 40 21.5 72t71.5 32q62 0 66 -84q2 -33 6 -55t15 -42t32 -30t53 -10q85 0 147.5 62.5t62.5 152.5q0 112 -138 195q-9 6 -47 28t-52 31t-47 32t-48 38t-38.5 41.5t-34 51t-19 57t-8.5 67.5q0 37 8.5 77t31 93t72 109.5t120.5 105.5q-58 79 -58 166 q0 138 97.5 234t270.5 96q123 0 191.5 -56t68.5 -124q0 -105 -86 -105q-36 0 -53 24.5t-19 59.5q-3 67 -26.5 102t-84.5 35q-87 0 -146.5 -52.5t-59.5 -140.5q0 -59 35.5 -117t105.5 -100q8 -5 46.5 -27.5t52 -31t47 -32t48 -38.5t38 -41.5t34 -51t19 -57t8.5 -67.5 q0 -29 -4 -58.5t-18.5 -72.5t-38 -82.5t-66.5 -85t-100 -84.5q52 -69 52 -148q0 -153 -109.5 -251t-270.5 -98q-122 0 -185.5 55.5t-63.5 124.5zM343 580q0 -40 13.5 -76t30 -60.5t51.5 -55t56 -45t66 -44.5q10 -7 15 -10q83 -55 129 -100q64 45 98.5 96t34.5 130 q0 49 -17 90.5t-53 77t-66.5 58.5t-82.5 57q-9 6 -14 9q-74 48 -124 100q-33 -24 -53 -42t-41.5 -45.5t-32 -62t-10.5 -77.5z" />
<glyph unicode="&#xa8;" horiz-adv-x="768" d="M317 1157q0 45 35 77t76 32q34 0 56 -22t22 -54q0 -47 -35.5 -79t-75.5 -32q-34 0 -56 22t-22 56zM647 1157q0 47 35 79t76 32q33 0 55.5 -22.5t22.5 -55.5q0 -45 -35 -77t-76 -32q-34 0 -56 22t-22 54z" />
<glyph unicode="&#xa9;" horiz-adv-x="1296" d="M70 627q0 117 46 224t123.5 184.5t184.5 123t225 45.5q157 0 290 -77t210.5 -210t77.5 -290t-77.5 -290.5t-210.5 -211.5t-290 -78q-158 0 -291.5 78.5t-210.5 212t-77 289.5zM133 627q0 -139 68.5 -257.5t187.5 -187.5t260 -69q139 0 257.5 68.5t187.5 187t69 258.5 t-68.5 258.5t-187 187t-258.5 68.5q-141 0 -260 -68.5t-187.5 -187t-68.5 -258.5zM344 629q0 120 85.5 212.5t223.5 92.5q81 0 133 -14.5t78 -14.5l25 -160l-55 -8q-5 28 -8.5 43t-11.5 36.5t-19.5 32t-30 22t-45.5 16t-64 4.5q-32 0 -63 -12t-62.5 -39.5t-51 -83 t-19.5 -131.5q0 -109 54 -182.5t153 -73.5q114 0 186 104l43 -29q-35 -54 -96.5 -92.5t-139.5 -38.5q-142 0 -228.5 93.5t-86.5 222.5z" />
<glyph unicode="&#xaa;" horiz-adv-x="565" d="M250 842q0 11 4 35q28 121 238 176l118 30q11 45 11 82q0 52 -21 70t-53 18q-49 0 -80.5 -15t-36.5 -40q-4 -16 -4 -20v-7q2 -2 2 -8q0 -10 -2 -16q-4 -15 -19.5 -29t-39.5 -14q-19 0 -30 10t-11 27q0 2 1 7t1 7q13 58 89.5 104t141.5 46q160 0 160 -150q0 -43 -10 -84 l-35 -153q-15 -64 -15 -91q0 -26 15 -26q11 0 24 10l11 -33q-17 -17 -46 -31t-53 -14q-31 0 -47 21.5t-16 50.5q0 6 2 8q-61 -47 -98 -63.5t-82 -16.5q-53 0 -86 29.5t-33 79.5zM352 856q0 -57 70 -57q50 0 137 67l39 162q-128 -33 -180 -65t-64 -80q-2 -10 -2 -27z" />
<glyph unicode="&#xab;" horiz-adv-x="950" d="M184 424l6 33l50 32q104 71 191 145.5t216 199.5l47 -50q-203 -234 -340 -344q93 -115 195 -344l-70 -49q-78 127 -132.5 200t-127.5 144q-23 23 -35 33zM520 424l6 33l49 32q104 72 192 147t216 198l45 -50q-203 -234 -340 -344q93 -115 195 -344l-68 -49 q-78 127 -132.5 200t-127.5 144q-23 23 -35 33z" />
<glyph unicode="&#xac;" horiz-adv-x="1146" d="M178 731l17 90h1048l-96 -549h-109l80 459h-940z" />
<glyph unicode="&#xad;" horiz-adv-x="716" d="M158 512q2 4 2 6q5 25 25.5 50.5t37.5 25.5h469q23 0 23 -25v-12q-3 -19 -26 -46.5t-42 -27.5h-465q-10 0 -17 8.5t-7 20.5z" />
<glyph unicode="&#xae;" horiz-adv-x="1296" d="M70 627q0 117 46 224t123.5 184.5t184.5 123t225 45.5q157 0 290 -77t210.5 -210t77.5 -290t-77.5 -290.5t-210.5 -211.5t-290 -78q-158 0 -291.5 78.5t-210.5 212t-77 289.5zM133 627q0 -139 68.5 -257.5t187.5 -187.5t260 -69q139 0 257.5 68.5t187.5 187t69 258.5 t-68.5 258.5t-187 187t-258.5 68.5q-141 0 -260 -68.5t-187.5 -187t-68.5 -258.5zM424 342v25q0 10 20 10h25q9 0 12.5 3t3.5 13v457q0 22 -8 22l-33 -2q-20 3 -20 13v22q72 10 235 10q55 0 95.5 -15t61 -39t29.5 -48.5t9 -50.5q0 -30 -12 -57t-29 -44t-34.5 -30t-29.5 -19 l-12 -6l99 -168q38 -63 82 -63v-27q-27 -8 -48 -8q-90 0 -127 78l-98 162q-11 8 -55 8v-195q0 -9 2 -12.5t12 -3.5h25q22 0 22 -12v-23q-85 4 -114 4zM590 631q25 0 42 1.5t42 8.5t40 20t26.5 39t11.5 62q0 54 -27 86.5t-78 32.5q-22 0 -57 -7v-243z" />
<glyph unicode="&#xaf;" horiz-adv-x="813" d="M315 1106q0 4 2 8q3 20 20.5 40t35.5 20h499q12 0 18.5 -7t6.5 -16v-6q-3 -20 -22 -41t-37 -21h-502q-21 0 -21 23z" />
<glyph unicode="&#xb0;" horiz-adv-x="546" d="M281 1178q0 12 4 36q13 84 83.5 143.5t155.5 59.5q74 0 122 -47.5t48 -120.5q0 -23 -2 -35q-15 -85 -84.5 -144.5t-154.5 -59.5q-76 0 -124 47.5t-48 120.5zM348 1184q0 -49 30.5 -83t84.5 -34q60 0 105.5 44t56.5 101q0 4 1 13.5t1 13.5q0 50 -28.5 86.5t-84.5 36.5 q-62 0 -107 -46t-55 -104q-4 -20 -4 -28z" />
<glyph unicode="&#xb1;" horiz-adv-x="1079" d="M141 37l19 100h809l-19 -100h-809zM240 598l18 100h354l64 357h100l-61 -357h352l-16 -100h-355l-61 -354h-103l64 354h-356z" />
<glyph unicode="&#xb2;" horiz-adv-x="628" d="M238 745q12 67 74 130t161 131q90 61 129 107t53 124q4 20 4 31q0 48 -28 70t-60 22q-60 0 -88 -18t-32 -42q-2 -9 -1 -25t-1 -24q-4 -22 -25.5 -35.5t-38.5 -13.5q-19 0 -33 12t-14 29q0 6 2 8q10 52 76 105t174 53q79 0 134.5 -32t55.5 -101q0 -23 -4 -37 q-11 -66 -66 -121.5t-163 -122.5q-153 -95 -170 -184h166q68 0 143 137l47 -10q-42 -89 -74 -193h-421z" />
<glyph unicode="&#xb3;" horiz-adv-x="628" d="M236 805q0 18 20.5 31.5t38.5 13.5t27.5 -7t19.5 -22q22 -37 94 -37q19 0 43 7t55 23.5t57 52.5t36 85q2 12 2 31q0 31 -14.5 52.5t-38 31t-43.5 13t-41 3.5q-11 0 -43 -4l6 49q71 9 119.5 48.5t60.5 101.5q0 4 1 11t1 11q0 31 -20 45.5t-50 14.5q-38 0 -78.5 -18.5 t-48.5 -53.5q-14 -59 -63 -59q-18 0 -28 9t-11.5 15.5t-1.5 12.5q3 15 20 37.5t47.5 47t83.5 41.5t115 17q72 0 112 -26t40 -72q0 -15 -2 -23q-17 -82 -131 -139q52 -5 92.5 -41.5t40.5 -101.5q0 -13 -4 -37q-20 -104 -120 -170t-224 -66q-59 0 -114.5 21.5t-55.5 50.5z" />
<glyph unicode="&#xb4;" horiz-adv-x="698" d="M383 1133q0 24 20 49l209 258q12 4 31 4q60 0 92 -37q7 -7 13 -10v-23l-275 -223q-49 -41 -65 -41q-10 0 -17.5 7t-7.5 16z" />
<glyph unicode="&#xb5;" horiz-adv-x="993" d="M14 -375q0 41 49.5 170.5t63.5 188.5q5 23 18.5 122.5t28.5 167.5l102 457q3 14 7.5 39t7.5 40t10 34t15 29.5t22 18t33 7.5q47 0 66.5 -13.5t19.5 -41.5q0 -11 -4.5 -32.5t-12 -50t-10.5 -40.5l-96 -420q-11 -45 -13.5 -80t3 -68.5t30.5 -52t68 -18.5q67 0 149 103 t211 321l60 225q4 16 9.5 46.5t10 47.5t13 36.5t24 28.5t37.5 9q47 0 66.5 -13.5t19.5 -41.5q0 -14 -12.5 -63t-14.5 -60l-114 -467q-23 -102 -23 -117q0 -35 21 -35q16 0 55.5 29.5t77.5 73.5q35 0 47 -35q-148 -190 -285 -190q-43 0 -59.5 17.5t-16.5 49.5q0 61 35 189 l23 79l-6 4q-61 -90 -103.5 -144.5t-93.5 -103t-101.5 -70t-109.5 -21.5q-58 0 -86 47q-9 0 -18.5 -6t-10.5 -13q-14 -60 -14 -153q0 -22 1 -63t1 -60q0 -118 -37 -164.5t-84 -46.5q-25 0 -52.5 29t-27.5 75z" />
<glyph unicode="&#xb6;" horiz-adv-x="1232" d="M205 788q0 59 8 111q35 194 163.5 309t328.5 115q89 0 202.5 -5t128.5 -5l144 6l227 4l-8 -43q-3 -14 -15 -14h-61q-52 0 -70.5 -26t-31.5 -101l-252 -1434q-8 -41 -8 -72q0 -33 14 -43t51 -12h61q13 0 9 -14l-9 -43h-671l8 43q3 14 14 14h60q51 1 69.5 25t32.5 104 l133 758q-55 -25 -162 -25q-49 0 -96 9.5t-97 34.5t-87.5 63t-61.5 100t-24 141zM715 -356q0 -68 43 -68q42 0 59.5 28t30.5 99l254 1436q6 44 6 67q0 18 -3 29.5t-10.5 17t-13.5 7t-18 2.5q-20 0 -34.5 -8t-23.5 -18.5t-15.5 -30.5t-9.5 -34t-7 -38l-252 -1426 q-6 -30 -6 -63z" />
<glyph unicode="&#xb7;" horiz-adv-x="512" d="M254 518q0 43 34 77t77 34t76.5 -34t33.5 -77t-33.5 -76.5t-76.5 -33.5t-77 33.5t-34 76.5z" />
<glyph unicode="&#xb8;" horiz-adv-x="1107" d="M346 -336l29 37q39 -13 58.5 -16.5t55.5 -3.5q57 0 101.5 27.5t44.5 74.5q0 24 -20.5 38.5t-51.5 14.5q-41 0 -94 -12l-10 12l121 178h69l-76 -118q24 6 54 6q53 0 87 -25t34 -72q0 -76 -75.5 -126t-180.5 -50q-74 0 -146 35z" />
<glyph unicode="&#xb9;" horiz-adv-x="628" d="M285 745l8 43q5 11 16 11h74q25 0 48 21t30 54l59 312q10 50 8 68t-20 18q-45 0 -123 -33l-8 55q135 46 260 115h33l-105 -535q-7 -33 4 -54t33 -21h57q14 0 11 -11l-8 -43q-107 3 -177 3z" />
<glyph unicode="&#xba;" horiz-adv-x="714" d="M252 879q25 131 114.5 205.5t221.5 74.5q73 0 123.5 -22.5t73.5 -60t31 -86t-5 -99.5q-24 -113 -112.5 -191.5t-225.5 -78.5q-115 0 -179.5 74.5t-41.5 183.5zM373 899q-17 -85 15.5 -153t117.5 -68q24 0 49 8t52 26.5t49 56t32 89.5q23 120 -11 185t-112 65 q-73 0 -124.5 -60.5t-67.5 -148.5z" />
<glyph unicode="&#xbb;" horiz-adv-x="950" d="M125 96q203 234 340 344q-93 115 -195 344l68 50q79 -129 133 -202t127 -143q23 -22 35 -32l-6 -33l-49 -33q-105 -73 -193.5 -147.5t-214.5 -196.5zM459 96q203 234 340 344q-93 115 -195 344l70 50q79 -129 133 -202t127 -143q23 -22 35 -32l-6 -33l-50 -33 q-104 -72 -191.5 -146.5t-215.5 -197.5z" />
<glyph unicode="&#xbc;" horiz-adv-x="1351" d="M201 -70l1083 1178l84 -16l-1081 -1178zM279 645l8 43q5 10 16 10h74q25 0 48 21.5t30 54.5l59 311q10 49 8 67.5t-20 18.5q-19 0 -58 -10.5t-65 -21.5l-8 55q135 46 260 115h33l-105 -535q-7 -33 4 -54.5t33 -21.5h57q3 0 6 -1t4.5 -3t0.5 -6l-9 -43q-106 2 -176 2z M796 61q0 11 11 33q16 24 27 35q91 109 296 301q54 47 87 64q2 2 28 2q14 0 26 -4.5t9 -16.5l-82 -369h115l-29 -69h-102l-11 -49q-12 -53 6 -71.5t78 -22.5q3 -12 -1 -31t-13 -29q-61 2 -158 2q-100 0 -161 -2q-5 9 -0.5 28.5t14.5 31.5q67 3 91.5 19t37.5 75l10 49h-241 q-38 0 -38 24zM891 106h201l63 287q-80 -79 -165 -170.5t-99 -116.5z" />
<glyph unicode="&#xbd;" horiz-adv-x="1351" d="M160 -70l1083 1178l84 -16l-1081 -1178zM283 645l8 43q5 10 16 10h74q25 0 48 21.5t30 54.5l59 311q10 49 8 67.5t-20 18.5q-19 0 -58 -10.5t-65 -21.5l-8 55q135 46 260 115h33l-105 -535q-7 -33 4 -54.5t33 -21.5h57q3 0 6 -1t4.5 -3t0.5 -6l-9 -43q-106 2 -176 2z M807 -162q12 67 73.5 129.5t161.5 130.5q90 61 129.5 107.5t53.5 124.5q4 20 4 30q0 48 -28 70.5t-60 22.5q-60 0 -88.5 -18t-32.5 -42q-2 -9 -1 -25t-1 -24q-4 -22 -25.5 -35.5t-38.5 -13.5q-19 0 -33 12t-14 29q0 6 2 8q10 52 76 105t174 53q79 0 135 -32t56 -101 q0 -23 -4 -37q-11 -66 -66.5 -121t-163.5 -123q-153 -95 -170 -184h166q68 0 143 137l48 -10q-42 -89 -74 -193h-422z" />
<glyph unicode="&#xbe;" horiz-adv-x="1351" d="M201 -70l1083 1178l84 -16l-1081 -1178zM231 700q0 18 21 31.5t39 13.5q27 0 47 -28q22 -37 94 -37q19 0 43 7t55 23.5t57 52.5t36 85q2 12 2 31q0 31 -14.5 52.5t-38.5 31t-44 13t-41 3.5q-11 0 -43 -4l7 49q71 9 119.5 48.5t60.5 101.5q0 4 1 11t1 11q0 59 -70 59 q-38 0 -78.5 -18.5t-48.5 -52.5q-14 -60 -63 -60q-18 0 -28 9t-11.5 15.5t-1.5 12.5q3 15 20 37.5t47.5 47.5t83.5 42t115 17q72 0 112 -26.5t40 -72.5q0 -14 -2 -22q-17 -82 -132 -140q52 -5 93 -41.5t41 -101.5q0 -7 -5 -37q-20 -103 -119.5 -169t-224.5 -66 q-60 0 -115 21t-55 50zM743 65q0 11 11 33q18 27 26 35q87 105 297 301q56 48 86 64q2 2 29 2q14 0 26 -4.5t9 -16.5l-82 -368h115l-29 -70h-103l-10 -49q-12 -53 6 -71.5t78 -22.5q3 -12 -1 -31t-13 -29q-61 2 -158 2q-101 0 -162 -2q-5 9 0 28.5t15 31.5q67 3 91.5 19 t37.5 75l10 49h-242q-37 0 -37 24zM838 111h200l64 286q-81 -80 -165.5 -170.5t-98.5 -115.5z" />
<glyph unicode="&#xbf;" horiz-adv-x="829" d="M43 -211q0 12 3 35.5t3 28.5q8 47 30.5 90.5t45.5 72.5t65 64.5t64.5 51.5t69.5 48q97 64 125 103q52 72 65 149l16 90q3 21 29 21q25 0 19 -21l-17 -94q-7 -44 -15 -74t-27 -76.5t-57 -91.5t-93 -88q-76 -61 -115.5 -115t-50.5 -122q-4 -36 -4 -54q0 -86 45.5 -144 t120.5 -58q86 0 148.5 34.5t70.5 81.5q7 36 -4 54q-9 19 -5 49q6 33 34.5 52.5t60.5 19.5q27 0 48 -15t21 -51q0 -3 -1 -11t-1 -12q-18 -102 -135 -184q-110 -80 -268 -80q-137 0 -214 66t-77 180zM494 795q0 3 1 9t1 9q9 44 47 76.5t82 32.5q39 0 65.5 -25.5t26.5 -62.5 q0 -4 -1 -11t-1 -10q-7 -44 -45.5 -76t-83.5 -32q-40 0 -66 26t-26 64z" />
<glyph unicode="&#xc0;" horiz-adv-x="1366" d="M6 0l6 39q3 16 19 16q71 5 118.5 35t100.5 119l645 1065q25 42 42 58t38 16q20 0 28 -14.5t13 -47.5l188 -1110q9 -60 36.5 -86.5t86.5 -32.5l21 -2q18 0 16 -16l-4 -39l-4 -4q-144 4 -232 4q-112 0 -260 -4l-2 4l4 39q1 16 17 16l57 4q100 7 100 69q0 5 -2 19l-51 347 h-409q-35 0 -50 -7t-26 -28l-172 -297q-15 -25 -15 -48q0 -49 74 -55l55 -4q15 0 13 -16l-4 -39l-7 -4q-144 4 -256 4q-34 0 -182 -4zM581 594q0 -14 48 -14h342l-84 546h-4l-297 -520q-5 -8 -5 -12zM815 1589l178 92l209 -172q23 -20 23 -34q0 -13 -9.5 -26t-29.5 -13 q-25 0 -82 24z" />
<glyph unicode="&#xc1;" horiz-adv-x="1366" d="M6 0l6 39q3 16 19 16q71 5 118.5 35t100.5 119l645 1065q25 42 42 58t38 16q20 0 28 -14.5t13 -47.5l188 -1110q9 -60 36.5 -86.5t86.5 -32.5l21 -2q18 0 16 -16l-4 -39l-4 -4q-144 4 -232 4q-112 0 -260 -4l-2 4l4 39q1 16 17 16l57 4q100 7 100 69q0 5 -2 19l-51 347 h-409q-35 0 -50 -7t-26 -28l-172 -297q-15 -25 -15 -48q0 -49 74 -55l55 -4q15 0 13 -16l-4 -39l-7 -4q-144 4 -256 4q-34 0 -182 -4zM581 594q0 -14 48 -14h342l-84 546h-4l-297 -520q-5 -8 -5 -12zM786 1458q0 24 43 51l289 172l133 -92l-346 -129q-74 -24 -94 -24 q-25 0 -25 22z" />
<glyph unicode="&#xc2;" horiz-adv-x="1366" d="M6 0l6 39q3 16 19 16q71 5 118.5 35t100.5 119l645 1065q25 42 42 58t38 16q20 0 28 -14.5t13 -47.5l188 -1110q9 -60 36.5 -86.5t86.5 -32.5l21 -2q18 0 16 -16l-4 -39l-4 -4q-144 4 -232 4q-112 0 -260 -4l-2 4l4 39q1 16 17 16l57 4q100 7 100 69q0 5 -2 19l-51 347 h-409q-35 0 -50 -7t-26 -28l-172 -297q-15 -25 -15 -48q0 -49 74 -55l55 -4q15 0 13 -16l-4 -39l-7 -4q-144 4 -256 4q-34 0 -182 -4zM581 594q0 -14 48 -14h342l-84 546h-4l-297 -520q-5 -8 -5 -12zM762 1479q122 79 248 192h88q60 -103 162 -192l-43 -43q-117 60 -189 127 q-120 -75 -248 -127z" />
<glyph unicode="&#xc3;" horiz-adv-x="1366" d="M6 0l6 39q3 16 19 16q71 5 118.5 35t100.5 119l645 1065q25 42 42 58t38 16q20 0 28 -14.5t13 -47.5l188 -1110q9 -60 36.5 -86.5t86.5 -32.5l21 -2q18 0 16 -16l-4 -39l-4 -4q-144 4 -232 4q-112 0 -260 -4l-2 4l4 39q1 16 17 16l57 4q100 7 100 69q0 5 -2 19l-51 347 h-409q-35 0 -50 -7t-26 -28l-172 -297q-15 -25 -15 -48q0 -49 74 -55l55 -4q15 0 13 -16l-4 -39l-7 -4q-144 4 -256 4q-34 0 -182 -4zM581 594q0 -14 48 -14h342l-84 546h-4l-297 -520q-5 -8 -5 -12zM684 1448q41 93 88.5 137.5t112.5 44.5q66 0 135 -57q50 -45 98 -45 q36 0 63.5 22t60.5 84l46 -12q-75 -184 -215 -184q-52 0 -120 53q-63 45 -102 45t-66.5 -23t-53.5 -75z" />
<glyph unicode="&#xc4;" horiz-adv-x="1366" d="M6 0l6 39q3 16 19 16q71 5 118.5 35t100.5 119l645 1065q25 42 42 58t38 16q20 0 28 -14.5t13 -47.5l188 -1110q9 -60 36.5 -86.5t86.5 -32.5l21 -2q18 0 16 -16l-4 -39l-4 -4q-144 4 -232 4q-112 0 -260 -4l-2 4l4 39q1 16 17 16l57 4q100 7 100 69q0 5 -2 19l-51 347 h-409q-35 0 -50 -7t-26 -28l-172 -297q-15 -25 -15 -48q0 -49 74 -55l55 -4q15 0 13 -16l-4 -39l-7 -4q-144 4 -256 4q-34 0 -182 -4zM581 594q0 -14 48 -14h342l-84 546h-4l-297 -520q-5 -8 -5 -12zM641 1446q0 40 29 69t69 29t69.5 -29t29.5 -69t-29.5 -69t-69.5 -29 t-69 29t-29 69zM1126 1446q0 40 29.5 69t69.5 29t69 -29t29 -69t-29 -69t-69 -29t-69.5 29t-29.5 69z" />
<glyph unicode="&#xc5;" horiz-adv-x="1366" d="M6 0l6 39q3 16 19 16q71 5 118.5 35t100.5 119l645 1065q3 6 17 28q-58 12 -90 58.5t-19 107.5q14 70 77.5 120t134.5 50q72 0 115.5 -49.5t28.5 -120.5q-11 -53 -51.5 -96t-95.5 -62q2 -8 4 -24l188 -1110q9 -60 36.5 -86.5t86.5 -32.5l21 -2q18 0 16 -16l-4 -39l-4 -4 q-144 4 -232 4q-112 0 -260 -4l-2 4l4 39q1 16 17 16l57 4q100 7 100 69q0 5 -2 19l-51 347h-409q-35 0 -50 -7t-26 -28l-172 -297q-15 -25 -15 -48q0 -49 74 -55l55 -4q15 0 13 -16l-4 -39l-7 -4q-144 4 -256 4q-34 0 -182 -4zM581 594q0 -14 48 -14h342l-84 546h-4 l-297 -520q-5 -8 -5 -12zM878 1468q-9 -45 12.5 -79.5t66.5 -34.5t80.5 34.5t45.5 79.5q10 48 -12 81.5t-67 33.5q-46 0 -81.5 -34t-44.5 -81z" />
<glyph unicode="&#xc6;" horiz-adv-x="1697" d="M4 0l8 39q3 13 23 16l45 4q56 4 81.5 24t74.5 91l704 1008q21 37 6.5 57.5t-47.5 22.5l-59 4q-16 0 -13 14l9 41l4 2l344 -2h151h437q-16 -174 -19 -315l-59 -11q-4 39 -7 58.5t-9 51t-13.5 46.5t-20.5 35.5t-30 29.5t-41.5 16t-56.5 7h-197q-34 0 -58 -26.5t-30 -63.5 l-80 -406h201q48 0 71.5 21t44.5 70l25 61q8 16 18 16h43q7 0 7 -8q-47 -149 -56 -194q-5 -31 -9.5 -71t-8 -78.5t-4.5 -47.5l-4 -6h-45q-15 0 -15 14l2 64q-2 47 -19 68.5t-65 21.5h-200l-101 -522q-13 -72 58 -72h256q54 0 100 21t82 61t63.5 84.5t55.5 105.5l57 -10 q-81 -200 -117 -342h-665l-254 -4l-4 4l8 37q4 18 18 18l54 4q60 4 88 26.5t36 66.5l78 393h-350l-283 -406q-17 -24 -23.5 -36.5t-10.5 -22t4.5 -13t18 -5.5t34.5 -3l55 -4q11 0 11 -12l-9 -43l-2 -4q-133 4 -211 4l-178 -4zM653 625h312l108 553q7 43 -2 47z" />
<glyph unicode="&#xc7;" horiz-adv-x="1261" d="M182 494q0 74 15 151q38 196 158.5 359t282 253.5t323.5 90.5q105 0 183 -22t132 -45.5t96 -25.5q-15 -135 -18 -317l-60 -8q-31 342 -370 342q-49 0 -109 -20.5t-128 -67.5t-128 -113t-110.5 -167t-73.5 -220q-17 -90 -17 -173q0 -92 20.5 -171t61.5 -142t109.5 -99 t157.5 -36q137 0 254.5 52.5t244.5 171.5q29 0 39 -31q-224 -243 -487 -273l-69 -120q25 6 54 6q55 0 89 -27.5t34 -73.5q0 -79 -77 -128.5t-176 -49.5q-46 0 -75.5 8t-68.5 27q7 33 31 53q71 -28 113 -28q55 0 89 28.5t34 75.5q0 49 -55 49q-53 0 -95 -12l-9 12l109 177 q-128 1 -226.5 43t-158 114t-89.5 162t-30 195z" />
<glyph unicode="&#xc8;" horiz-adv-x="1077" d="M23 0l8 41q5 14 18 14l60 4q57 4 83 24t35 64l199 1022q3 17 3 29q0 31 -20.5 45.5t-66.5 18.5l-57 4q-18 0 -13 14l9 41l4 4q184 -4 247 -4h498q47 0 94 8q9 0 9 -6q0 -18 -6 -130t-11 -167l-57 -10q-5 48 -11 78t-18.5 60.5t-31.5 47t-50 27t-74 10.5h-204 q-72 0 -86 -70l-82 -430h250q49 0 74.5 20.5t39.5 65.5l15 52q4 16 18 16h43l6 -8q-33 -119 -43 -185q-17 -88 -26 -178l-11 -6h-43q-7 0 -9.5 5.5t-0.5 10.5l4 52q1 6 1 17q0 34 -19.5 47.5t-65.5 13.5h-250l-100 -515q-2 -16 -2 -21q0 -26 15.5 -36t45.5 -10h267 q193 0 317 268l59 -10q-6 -14 -139 -342q-156 4 -250 4h-422q-65 0 -249 -4zM567 1583l178 92l209 -172q23 -20 23 -35q0 -13 -9.5 -25.5t-29.5 -12.5q-25 0 -82 24z" />
<glyph unicode="&#xc9;" horiz-adv-x="1077" d="M23 0l8 41q5 14 18 14l60 4q57 4 83 24t35 64l199 1022q3 17 3 29q0 31 -20.5 45.5t-66.5 18.5l-57 4q-18 0 -13 14l9 41l4 4q184 -4 247 -4h498q47 0 94 8q9 0 9 -6q0 -18 -6 -130t-11 -167l-57 -10q-5 48 -11 78t-18.5 60.5t-31.5 47t-50 27t-74 10.5h-204 q-72 0 -86 -70l-82 -430h250q49 0 74.5 20.5t39.5 65.5l15 52q4 16 18 16h43l6 -8q-33 -119 -43 -185q-17 -88 -26 -178l-11 -6h-43q-7 0 -9.5 5.5t-0.5 10.5l4 52q1 6 1 17q0 34 -19.5 47.5t-65.5 13.5h-250l-100 -515q-2 -16 -2 -21q0 -26 15.5 -36t45.5 -10h267 q193 0 317 268l59 -10q-6 -14 -139 -342q-156 4 -250 4h-422q-65 0 -249 -4zM539 1448q0 24 43 51l288 172l134 -92l-347 -129q-77 -25 -94 -25q-24 0 -24 23z" />
<glyph unicode="&#xca;" horiz-adv-x="1077" d="M23 0l8 41q5 14 18 14l60 4q57 4 83 24t35 64l199 1022q3 17 3 29q0 31 -20.5 45.5t-66.5 18.5l-57 4q-18 0 -13 14l9 41l4 4q184 -4 247 -4h498q47 0 94 8q9 0 9 -6q0 -18 -6 -130t-11 -167l-57 -10q-5 48 -11 78t-18.5 60.5t-31.5 47t-50 27t-74 10.5h-204 q-72 0 -86 -70l-82 -430h250q49 0 74.5 20.5t39.5 65.5l15 52q4 16 18 16h43l6 -8q-33 -119 -43 -185q-17 -88 -26 -178l-11 -6h-43q-7 0 -9.5 5.5t-0.5 10.5l4 52q1 6 1 17q0 34 -19.5 47.5t-65.5 13.5h-250l-100 -515q-2 -16 -2 -21q0 -26 15.5 -36t45.5 -10h267 q193 0 317 268l59 -10q-6 -14 -139 -342q-156 4 -250 4h-422q-65 0 -249 -4zM573 1468q118 77 248 193h88q61 -105 162 -193l-43 -43q-114 59 -188 127q-120 -75 -248 -127z" />
<glyph unicode="&#xcb;" horiz-adv-x="1077" d="M23 0l8 41q5 14 18 14l60 4q57 4 83 24t35 64l199 1022q3 17 3 29q0 31 -20.5 45.5t-66.5 18.5l-57 4q-18 0 -13 14l9 41l4 4q184 -4 247 -4h498q47 0 94 8q9 0 9 -6q0 -18 -6 -130t-11 -167l-57 -10q-5 48 -11 78t-18.5 60.5t-31.5 47t-50 27t-74 10.5h-204 q-72 0 -86 -70l-82 -430h250q49 0 74.5 20.5t39.5 65.5l15 52q4 16 18 16h43l6 -8q-33 -119 -43 -185q-17 -88 -26 -178l-11 -6h-43q-7 0 -9.5 5.5t-0.5 10.5l4 52q1 6 1 17q0 34 -19.5 47.5t-65.5 13.5h-250l-100 -515q-2 -16 -2 -21q0 -26 15.5 -36t45.5 -10h267 q193 0 317 268l59 -10q-6 -14 -139 -342q-156 4 -250 4h-422q-65 0 -249 -4zM559 1503q0 2 1 8t1 9q7 38 40.5 65t72.5 27q34 0 55 -21t21 -53q0 -3 -1 -9t-1 -9q-8 -38 -40.5 -65.5t-70.5 -27.5q-34 0 -56 22t-22 54zM948 1505q0 11 2 17q8 37 40.5 64.5t70.5 27.5 q33 0 54.5 -21.5t21.5 -52.5q0 -14 -2 -18q-6 -38 -38.5 -66.5t-70.5 -28.5q-34 0 -56 22t-22 56z" />
<glyph unicode="&#xcc;" horiz-adv-x="573" d="M39 29.5q2 19.5 8 25.5l64 6q61 6 90 28t37 67l198 1009q9 46 -11 68t-79 27l-70 6q-4 8 -1 30t8 29q180 -4 260 -4q61 0 245 4q6 -14 4 -33.5t-8 -25.5l-63 -6q-61 -6 -89.5 -28.5t-37.5 -66.5l-199 -1009q-9 -47 11 -68.5t79 -26.5l70 -6q4 -8 1.5 -30.5t-7.5 -28.5 q-180 4 -260 4q-62 0 -246 -4q-6 14 -4 33.5zM268 1579l178 92l209 -172q23 -20 23 -35q0 -13 -9.5 -26t-29.5 -13q-23 0 -82 25z" />
<glyph unicode="&#xcd;" horiz-adv-x="573" d="M39 29.5q2 19.5 8 25.5l64 6q61 6 90 28t37 67l198 1009q9 46 -11 68t-79 27l-70 6q-4 8 -1 30t8 29q180 -4 260 -4q61 0 245 4q6 -14 4 -33.5t-8 -25.5l-63 -6q-61 -6 -89.5 -28.5t-37.5 -66.5l-199 -1009q-9 -47 11 -68.5t79 -26.5l70 -6q4 -8 1.5 -30.5t-7.5 -28.5 q-180 4 -260 4q-62 0 -246 -4q-6 14 -4 33.5zM403 1448q0 24 43 51l289 172l133 -92l-346 -129q-77 -25 -94 -25q-25 0 -25 23z" />
<glyph unicode="&#xce;" horiz-adv-x="573" d="M39 29.5q2 19.5 8 25.5l64 6q61 6 90 28t37 67l198 1009q9 46 -11 68t-79 27l-70 6q-4 8 -1 30t8 29q180 -4 260 -4q61 0 245 4q6 -14 4 -33.5t-8 -25.5l-63 -6q-61 -6 -89.5 -28.5t-37.5 -66.5l-199 -1009q-9 -47 11 -68.5t79 -26.5l70 -6q4 -8 1.5 -30.5t-7.5 -28.5 q-180 4 -260 4q-62 0 -246 -4q-6 14 -4 33.5zM317 1468q118 77 248 193h88q61 -105 162 -193l-43 -43q-114 59 -188 127q-120 -75 -248 -127z" />
<glyph unicode="&#xcf;" horiz-adv-x="573" d="M39 29.5q2 19.5 8 25.5l64 6q61 6 90 28t37 67l198 1009q9 46 -11 68t-79 27l-70 6q-4 8 -1 30t8 29q180 -4 260 -4q61 0 245 4q6 -14 4 -33.5t-8 -25.5l-63 -6q-61 -6 -89.5 -28.5t-37.5 -66.5l-199 -1009q-9 -47 11 -68.5t79 -26.5l70 -6q4 -8 1.5 -30.5t-7.5 -28.5 q-180 4 -260 4q-62 0 -246 -4q-6 14 -4 33.5zM299 1503q0 2 1 8t1 9q7 38 40.5 65t72.5 27q34 0 54.5 -21t20.5 -53q0 -3 -1 -9t-1 -9q-8 -38 -40 -65.5t-70 -27.5q-34 0 -56 22t-22 54zM688 1505q0 11 2 17q8 37 40.5 64.5t70.5 27.5q33 0 54.5 -21.5t21.5 -52.5 q0 -12 -3 -18q-6 -38 -38 -66.5t-70 -28.5q-34 0 -56 22t-22 56z" />
<glyph unicode="&#xd0;" horiz-adv-x="1366" d="M33 0l6 37q4 18 18 18l60 4q54 3 83 24t38 69l85 436h-186l17 80h184l98 503q5 23 5 37q0 30 -19.5 40t-71.5 14l-53 4q-17 0 -14 16l6 39l6 4q184 -4 248 -4q34 0 143.5 2t177.5 2q245 0 401 -158.5t156 -397.5q0 -65 -14 -138q-28 -145 -90.5 -259t-140 -183 t-173.5 -114t-184 -62t-178 -17q-117 0 -224.5 2t-129.5 2q-66 0 -250 -4zM392 123q0 -23 16.5 -34.5t59.5 -17t126 -5.5q88 0 163.5 13.5t151.5 49t134 92.5t104.5 149t69.5 212q18 92 18 184q0 80 -14.5 149.5t-49 133t-86 108.5t-130.5 71.5t-179 26.5q-41 0 -67.5 -2.5 t-52.5 -10t-40.5 -24t-19.5 -42.5l-99 -508h212l-17 -80h-211l-86 -438q-3 -15 -3 -27z" />
<glyph unicode="&#xd1;" horiz-adv-x="1363" d="M25 0l4 37q2 17 28 18l52 4q56 5 88.5 39.5t42.5 81.5l184 946q-2 44 -33.5 90t-75.5 50q-13 2 -21 5.5t-7 10.5l4 39l6 4h270l498 -909q54 -95 66 -107q7 -6 12 -6q8 0 12.5 13t11.5 49l152 776q3 15 3 31q0 83 -87 90l-49 4q-9 1 -17.5 5.5t-7.5 10.5l6 39l4 4 q184 -4 226 -4q29 0 213 4l4 -4l-4 -39q-1 -7 -7.5 -11.5t-11.5 -4.5l-55 -4q-55 -4 -87 -37.5t-42 -83.5l-213 -1098q-13 -63 -53 -63q-48 0 -70 49l-510 903q-40 67 -55 67q-19 0 -39 -100l-139 -719q-4 -22 -4 -31q0 -37 22 -61.5t66 -28.5l51 -4q13 -1 12 -16l-4 -39 l-4 -4q-184 4 -213 4q-41 0 -225 -4zM661 1438q41 93 88.5 137.5t112.5 44.5q67 0 136 -57q50 -45 97 -45q36 0 63.5 22t60.5 84l47 -12q-75 -185 -216 -185q-51 0 -120 54q-63 45 -102 45t-66.5 -23.5t-53.5 -75.5z" />
<glyph unicode="&#xd2;" horiz-adv-x="1368" d="M179 480q0 69 16 155q39 199 146.5 361.5t263 257t327.5 94.5q227 0 371 -143t144 -380q0 -71 -15 -151q-40 -204 -146 -361t-264 -245t-344 -88q-223 0 -361 134.5t-138 365.5zM365 499q0 -209 105 -329.5t261 -120.5q173 0 316 158.5t196 427.5q21 112 21 205 q0 213 -100 325.5t-271 112.5q-70 0 -144 -35.5t-146 -106t-131.5 -191.5t-88.5 -275q-18 -92 -18 -171zM623 1579l178 92l209 -172q22 -19 22 -35q0 -13 -9.5 -26t-29.5 -13q-23 0 -82 25z" />
<glyph unicode="&#xd3;" horiz-adv-x="1368" d="M179 480q0 69 16 155q39 199 146.5 361.5t263 257t327.5 94.5q227 0 371 -143t144 -380q0 -71 -15 -151q-40 -204 -146 -361t-264 -245t-344 -88q-223 0 -361 134.5t-138 365.5zM365 499q0 -209 105 -329.5t261 -120.5q173 0 316 158.5t196 427.5q21 112 21 205 q0 213 -100 325.5t-271 112.5q-70 0 -144 -35.5t-146 -106t-131.5 -191.5t-88.5 -275q-18 -92 -18 -171zM756 1448q0 24 43 51l288 172l134 -92l-347 -129q-77 -25 -94 -25q-24 0 -24 23z" />
<glyph unicode="&#xd4;" horiz-adv-x="1368" d="M179 480q0 69 16 155q39 199 146.5 361.5t263 257t327.5 94.5q227 0 371 -143t144 -380q0 -71 -15 -151q-40 -204 -146 -361t-264 -245t-344 -88q-223 0 -361 134.5t-138 365.5zM365 499q0 -209 105 -329.5t261 -120.5q173 0 316 158.5t196 427.5q21 112 21 205 q0 213 -100 325.5t-271 112.5q-70 0 -144 -35.5t-146 -106t-131.5 -191.5t-88.5 -275q-18 -92 -18 -171zM690 1468q118 77 248 193h88q61 -105 162 -193l-43 -43q-117 60 -189 127q-121 -76 -247 -127z" />
<glyph unicode="&#xd5;" horiz-adv-x="1368" d="M179 480q0 69 16 155q39 199 146.5 361.5t263 257t327.5 94.5q227 0 371 -143t144 -380q0 -71 -15 -151q-40 -204 -146 -361t-264 -245t-344 -88q-223 0 -361 134.5t-138 365.5zM365 499q0 -209 105 -329.5t261 -120.5q173 0 316 158.5t196 427.5q21 112 21 205 q0 213 -100 325.5t-271 112.5q-70 0 -144 -35.5t-146 -106t-131.5 -191.5t-88.5 -275q-18 -92 -18 -171zM655 1438q41 93 88.5 137.5t112.5 44.5q67 0 136 -57q50 -45 97 -45q36 0 63.5 22t60.5 84l47 -12q-75 -185 -216 -185q-51 0 -120 54q-63 45 -102 45t-66.5 -23.5 t-53.5 -75.5z" />
<glyph unicode="&#xd6;" horiz-adv-x="1368" d="M179 480q0 69 16 155q39 199 146.5 361.5t263 257t327.5 94.5q227 0 371 -143t144 -380q0 -71 -15 -151q-40 -204 -146 -361t-264 -245t-344 -88q-223 0 -361 134.5t-138 365.5zM365 499q0 -209 105 -329.5t261 -120.5q173 0 316 158.5t196 427.5q21 112 21 205 q0 213 -100 325.5t-271 112.5q-70 0 -144 -35.5t-146 -106t-131.5 -191.5t-88.5 -275q-18 -92 -18 -171zM428 1446q0 40 29 69t69 29t69.5 -29t29.5 -69t-29.5 -69t-69.5 -29t-69 29t-29 69zM1266 1446q0 40 29 69t69 29t69 -29t29 -69t-29 -69t-69 -29t-69 29t-29 69z" />
<glyph unicode="&#xd7;" horiz-adv-x="1079" d="M256 221l295 250l-207 252l84 72l207 -252l297 252l57 -72l-295 -252l205 -250l-84 -71l-205 249l-295 -249z" />
<glyph unicode="&#xd8;" horiz-adv-x="1368" d="M143 -37l159 167q-123 134 -123 350q0 69 16 155q39 199 146.5 361.5t263 257t327.5 94.5q240 0 384 -157l173 181l51 -51l-179 -188q85 -128 85 -308q0 -77 -14 -151q-40 -204 -146 -361t-264 -245t-344 -88q-190 0 -321 100l-160 -168zM365 499q0 -140 53 -248l797 835 q-45 95 -128 143.5t-194 48.5q-70 0 -144 -35.5t-146 -106t-131.5 -191.5t-88.5 -275q-18 -92 -18 -171zM458 186q105 -137 273 -137q173 0 316 158.5t196 427.5q21 112 21 205q0 99 -20 170z" />
<glyph unicode="&#xd9;" horiz-adv-x="1298" d="M250 1282l6 39l6 4q184 -4 248 -4q68 0 252 4l4 -4l-8 -39q-3 -16 -19 -16l-51 -4q-60 -4 -89 -25.5t-38 -65.5l-121 -620q-25 -137 -25 -200q0 -112 56 -185q82 -103 213 -103q70 0 128.5 16.5t101 43t78 67.5t58.5 82t42.5 95.5t30.5 98.5t22 101l117 600q3 17 3 29 q0 32 -21 47t-70 19l-54 4q-5 0 -9 4.5t-3 11.5l8 39l4 4q184 -4 215 -4q33 0 217 4l4 -4l-8 -39q-3 -16 -18 -16l-51 -4q-61 -4 -90 -27.5t-37 -67.5l-111 -563q-22 -116 -52 -205.5t-78.5 -171t-113.5 -134t-158.5 -83t-211.5 -30.5q-51 0 -98.5 8.5t-99 33.5t-89 63.5 t-62 104t-24.5 150.5q0 69 14 143l135 688q3 15 3 27q0 31 -22 45.5t-71 18.5l-51 4q-15 0 -12 16zM793 1579l178 92l209 -172q22 -19 22 -35q0 -13 -9.5 -26t-29.5 -13q-23 0 -82 25z" />
<glyph unicode="&#xda;" horiz-adv-x="1298" d="M250 1282l6 39l6 4q184 -4 248 -4q68 0 252 4l4 -4l-8 -39q-3 -16 -19 -16l-51 -4q-60 -4 -89 -25.5t-38 -65.5l-121 -620q-25 -137 -25 -200q0 -112 56 -185q82 -103 213 -103q70 0 128.5 16.5t101 43t78 67.5t58.5 82t42.5 95.5t30.5 98.5t22 101l117 600q3 17 3 29 q0 32 -21 47t-70 19l-54 4q-5 0 -9 4.5t-3 11.5l8 39l4 4q184 -4 215 -4q33 0 217 4l4 -4l-8 -39q-3 -16 -18 -16l-51 -4q-61 -4 -90 -27.5t-37 -67.5l-111 -563q-22 -116 -52 -205.5t-78.5 -171t-113.5 -134t-158.5 -83t-211.5 -30.5q-51 0 -98.5 8.5t-99 33.5t-89 63.5 t-62 104t-24.5 150.5q0 69 14 143l135 688q3 15 3 27q0 31 -22 45.5t-71 18.5l-51 4q-15 0 -12 16zM764 1448q0 24 43 51l289 172l133 -92l-346 -129q-77 -25 -95 -25q-24 0 -24 23z" />
<glyph unicode="&#xdb;" horiz-adv-x="1298" d="M250 1282l6 39l6 4q184 -4 248 -4q68 0 252 4l4 -4l-8 -39q-3 -16 -19 -16l-51 -4q-60 -4 -89 -25.5t-38 -65.5l-121 -620q-25 -137 -25 -200q0 -112 56 -185q82 -103 213 -103q70 0 128.5 16.5t101 43t78 67.5t58.5 82t42.5 95.5t30.5 98.5t22 101l117 600q3 17 3 29 q0 32 -21 47t-70 19l-54 4q-5 0 -9 4.5t-3 11.5l8 39l4 4q184 -4 215 -4q33 0 217 4l4 -4l-8 -39q-3 -16 -18 -16l-51 -4q-61 -4 -90 -27.5t-37 -67.5l-111 -563q-22 -116 -52 -205.5t-78.5 -171t-113.5 -134t-158.5 -83t-211.5 -30.5q-51 0 -98.5 8.5t-99 33.5t-89 63.5 t-62 104t-24.5 150.5q0 69 14 143l135 688q3 15 3 27q0 31 -22 45.5t-71 18.5l-51 4q-15 0 -12 16zM739 1468q118 77 248 193h88q61 -105 162 -193l-43 -43q-114 59 -188 127q-120 -75 -248 -127z" />
<glyph unicode="&#xdc;" horiz-adv-x="1298" d="M252.5 341.5q0.5 65.5 15.5 141.5l131 670q10 55 -24 81.5t-92 31.5q-8 0 -12 5.5t-3 12.5l8 37l5 4q144 -4 229 -4q66 0 164 4q21 0 16 -31q-3 -14 -10 -19t-21 -9q-51 -12 -74 -45.5t-32 -83.5l-115 -586q-12 -66 -17 -104t-7 -94.5t12.5 -102t44.5 -84.5 q79 -103 213 -103q69 0 127 16.5t100.5 43t78 67.5t59 82t43 95.5t31 99t22.5 100.5l104 539q27 143 -51 160q-30 6 -24 26q5 33 36 33q98 -4 125 -4q51 0 199 4l2 -4l-6 -37q-3 -10 -14 -13t-39 -5q-57 -4 -90 -43t-44 -90l-102 -529q-22 -116 -51.5 -205.5t-78.5 -171 t-114 -134t-159 -83t-213 -30.5q-35 0 -69 4.5t-71.5 15t-70.5 29.5t-63.5 45.5t-51.5 66t-34 87.5t-12.5 113.5zM709 1448q0 40 28 68t68 28t68 -28t28 -68t-28 -68t-68 -28t-68 28t-28 68zM1004 1448q0 40 28 68t68 28t68 -28t28 -68t-28 -68t-68 -28t-68 28t-28 68z" />
<glyph unicode="&#xdd;" horiz-adv-x="1130" d="M251.5 1295.5q-1.5 21.5 2.5 29.5q114 -4 213 -4q59 0 219 4q3 -6 1.5 -29t-5.5 -30l-68 -6q-48 -4 -54.5 -22t11.5 -58l174 -494h9l323 494q31 44 29 60t-39 20l-66 6q-3 6 -1 29.5t6 29.5q156 -4 186 -4q46 0 164 4q4 -7 0.5 -29t-8.5 -30l-54 -4q-26 -2 -45.5 -9 t-37 -24t-27.5 -29.5t-31 -42.5l-358 -522q-18 -29 -29 -86l-78 -393q-9 -46 11 -68t79 -27l70 -6q4 -8 1.5 -30.5t-7.5 -28.5q-180 4 -260 4q-62 0 -246 -4q-6 14 -4 33.5t8 25.5l63 6q61 6 90 28.5t37 66.5l72 374q7 37 7 52q0 18 -7 36l-188 502q-32 85 -53.5 110 t-71.5 32l-31 4q-5 8 -6.5 29.5zM807 1448q0 24 43 51l289 172l133 -92l-346 -129q-77 -25 -95 -25q-24 0 -24 23z" />
<glyph unicode="&#xde;" horiz-adv-x="1026" d="M16 0l9 39q3 16 18 16l53 4q61 4 88.5 24t36.5 64l201 1031q9 44 -12 61.5t-80 22.5l-51 4q-16 0 -13 16l8 39l5 2q169 -2 247 -2l254 2l2 -2l-6 -39q-3 -16 -18 -16l-56 -4q-60 -4 -86.5 -22.5t-35.5 -61.5l-21 -115q70 4 176 4q88 0 155.5 -16.5t107.5 -46t66 -65 t34.5 -78.5t8 -81t-8.5 -78q-10 -49 -33.5 -100t-68.5 -104t-103.5 -94t-145 -67t-186.5 -26q-104 0 -145 15l-35 -179q-9 -46 11 -64.5t77 -23.5l53 -4q5 0 9.5 -4.5t3.5 -11.5l-9 -39l-4 -4q-170 4 -248 4l-254 -4zM426 385q27 -10 137 -10q46 0 88 8.5t86 31t79 58 t64 94.5t44 135q17 73 9 125.5t-25.5 87t-50.5 54t-65.5 27.5t-70.5 8q-30 0 -88.5 -7t-89.5 -16z" />
<glyph unicode="&#xdf;" horiz-adv-x="1112" d="M-168 -389q0 26 18 45.5t53 19.5q56 0 87 -50q10 -17 15.5 -24.5t16 -14.5t23.5 -7q27 0 56 25.5t47 64.5q14 29 29 78.5t26 95t25.5 119t21.5 113t20.5 118t16.5 95.5q7 37 24 135t33 183t33 169q0 16 -4.5 19.5t-20.5 3.5h-84q-16 0 -16 14q0 20 14.5 43t46.5 23 q80 0 109 98q123 453 491 453q129 0 192.5 -56t63.5 -133q0 -60 -27 -118t-77 -109t-100 -90.5t-115 -81.5v-4q46 -36 73.5 -59.5t68 -65.5t63 -78.5t40 -88t17.5 -104.5q0 -74 -31 -154.5t-83.5 -149.5t-132.5 -113.5t-169 -44.5q-172 0 -172 135t84 135q25 0 41.5 -11.5 t16.5 -29.5q0 -31 -11 -52.5t-22.5 -36t-11.5 -28.5q0 -16 7.5 -26t24 -13.5t28 -4.5t32.5 -1q48 0 97.5 56.5t81.5 143t32 167.5q0 209 -205 397l6 27q24 16 50.5 36t70.5 62t77 85t58 102.5t25 117.5q0 123 -125 123q-44 0 -82.5 -14.5t-66.5 -37t-52.5 -60.5t-41 -73 t-33 -87.5t-26 -91t-22.5 -95.5l-31 -139q-24 -107 -58.5 -279t-57 -276t-53.5 -226.5t-66.5 -210t-77.5 -147.5q-82 -114 -209 -114q-94 0 -133 30t-39 68z" />
<glyph unicode="&#xe0;" horiz-adv-x="995" d="M160 256q0 116 50 235.5t125.5 207.5t167.5 144t173 56q54 0 164 -12q18 -5 40.5 -5.5t56.5 0.5t46 1l-141 -637q-21 -102 -21 -115q0 -16 8.5 -22.5t16.5 -6.5q36 0 115 109q13 0 22.5 -5.5t13 -10.5t11.5 -17q-90 -198 -263 -198q-83 0 -83 92q0 45 20 112l27 86l-4 4 q-199 -294 -347 -294q-198 0 -198 276zM324 289q0 -197 90 -197q50 0 149 109.5t174 247.5q23 58 41 145t24 145l7 58q-61 39 -127 39q-67 0 -134.5 -55t-115.5 -137t-78 -178t-30 -177zM583 1309l8 22q74 47 143 47q14 0 30 -4l91 -258q7 -24 2 -49q-2 -8 -12.5 -15.5 t-22.5 -7.5q-17 0 -51 41z" />
<glyph unicode="&#xe1;" horiz-adv-x="995" d="M160 256q0 116 50 235.5t125.5 207.5t167.5 144t173 56q54 0 164 -12q18 -5 40.5 -5.5t56.5 0.5t46 1l-141 -637q-21 -102 -21 -115q0 -16 8.5 -22.5t16.5 -6.5q36 0 115 109q13 0 22.5 -5.5t13 -10.5t11.5 -17q-90 -198 -263 -198q-83 0 -83 92q0 45 20 112l27 86l-4 4 q-199 -294 -347 -294q-198 0 -198 276zM324 289q0 -197 90 -197q50 0 149 109.5t174 247.5q23 58 41 145t24 145l7 58q-61 39 -127 39q-67 0 -134.5 -55t-115.5 -137t-78 -178t-30 -177zM514 1063q2 11 7 20.5t9 14t19 22.5l205 244q14 4 29 4q63 0 103 -47l2 -23l-281 -223 q-47 -39 -69 -39q-11 0 -18.5 8.5t-5.5 18.5z" />
<glyph unicode="&#xe2;" horiz-adv-x="995" d="M160 256q0 116 50 235.5t125.5 207.5t167.5 144t173 56q54 0 164 -12q18 -5 40.5 -5.5t56.5 0.5t46 1l-141 -637q-21 -102 -21 -115q0 -16 8.5 -22.5t16.5 -6.5q36 0 115 109q13 0 22.5 -5.5t13 -10.5t11.5 -17q-90 -198 -263 -198q-83 0 -83 92q0 45 20 112l27 86l-4 4 q-199 -294 -347 -294q-198 0 -198 276zM324 289q0 -197 90 -197q50 0 149 109.5t174 247.5q23 58 41 145t24 145l7 58q-61 39 -127 39q-67 0 -134.5 -55t-115.5 -137t-78 -178t-30 -177zM415 1073q184 168 265 264h102q46 -110 153 -264l-49 -29q-117 101 -179 185 q-114 -97 -257 -185z" />
<glyph unicode="&#xe3;" horiz-adv-x="995" d="M160 256q0 116 50 235.5t125.5 207.5t167.5 144t173 56q54 0 164 -12q18 -5 40.5 -5.5t56.5 0.5t46 1l-141 -637q-21 -102 -21 -115q0 -16 8.5 -22.5t16.5 -6.5q36 0 115 109q13 0 22.5 -5.5t13 -10.5t11.5 -17q-90 -198 -263 -198q-83 0 -83 92q0 45 20 112l27 86l-4 4 q-199 -294 -347 -294q-198 0 -198 276zM324 289q0 -197 90 -197q50 0 149 109.5t174 247.5q23 58 41 145t24 145l7 58q-61 39 -127 39q-67 0 -134.5 -55t-115.5 -137t-78 -178t-30 -177zM376 1077q41 93 89 138t112 45q66 0 136 -58q50 -45 97 -45q36 0 64 22.5t61 84.5 l46 -13q-75 -184 -215 -184q-53 0 -121 53q-63 45 -101 45q-39 0 -66.5 -23t-53.5 -75z" />
<glyph unicode="&#xe4;" horiz-adv-x="995" d="M160 256q0 116 50 235.5t125.5 207.5t167.5 144t173 56q54 0 164 -12q18 -5 40.5 -5.5t56.5 0.5t46 1l-141 -637q-21 -102 -21 -115q0 -16 8.5 -22.5t16.5 -6.5q36 0 115 109q13 0 22.5 -5.5t13 -10.5t11.5 -17q-90 -198 -263 -198q-83 0 -83 92q0 45 20 112l27 86l-4 4 q-199 -294 -347 -294q-198 0 -198 276zM324 289q0 -197 90 -197q50 0 149 109.5t174 247.5q23 58 41 145t24 145l7 58q-61 39 -127 39q-67 0 -134.5 -55t-115.5 -137t-78 -178t-30 -177zM469 1174q0 38 28 66t66 28t66 -28t28 -66t-28 -66.5t-66 -28.5t-66 28.5t-28 66.5z M797 1174q0 38 28 66t66 28t66 -28t28 -66t-28 -66.5t-66 -28.5t-66 28.5t-28 66.5z" />
<glyph unicode="&#xe5;" horiz-adv-x="995" d="M160 256q0 116 50 235.5t125.5 207.5t167.5 144t173 56q54 0 164 -12q18 -5 40.5 -5.5t56.5 0.5t46 1l-141 -637q-21 -102 -21 -115q0 -16 8.5 -22.5t16.5 -6.5q36 0 115 109q13 0 22.5 -5.5t13 -10.5t11.5 -17q-90 -198 -263 -198q-83 0 -83 92q0 45 20 112l27 86l-4 4 q-199 -294 -347 -294q-198 0 -198 276zM324 289q0 -197 90 -197q50 0 149 109.5t174 247.5q23 58 41 145t24 145l7 58q-61 39 -127 39q-67 0 -134.5 -55t-115.5 -137t-78 -178t-30 -177zM522 1214q14 70 78 120t135 50q72 0 115 -49.5t28 -120.5q-14 -69 -76.5 -119.5 t-135.5 -50.5q-71 0 -114.5 50t-29.5 120zM598 1214q-9 -45 12.5 -79.5t66.5 -34.5t80.5 34.5t45.5 79.5q10 48 -12.5 81.5t-67.5 33.5q-46 0 -81 -33.5t-44 -81.5z" />
<glyph unicode="&#xe6;" horiz-adv-x="1406" d="M123 166q0 57 21.5 105t56 81.5t86 60.5t102.5 43t115.5 28t115 18t109.5 10q25 122 25 172q0 46 -15 79t-38.5 48t-43.5 21t-39 6q-29 0 -60 -6t-63.5 -18.5t-53 -38t-20.5 -60.5q0 -7 1.5 -15t1.5 -13q0 -37 -29.5 -63t-70.5 -26q-34 0 -50 17.5t-16 43.5 q0 95 119.5 167.5t261.5 72.5q28 0 55 -3.5t69.5 -16t76 -44t49.5 -79.5q66 69 150.5 106t172.5 37q75 0 132 -17.5t88 -46t46 -58.5t15 -60q0 -45 -20 -82t-52 -63.5t-82 -47t-101 -33t-119.5 -22.5t-126 -14.5t-130.5 -8.5q-12 -59 -12 -112q0 -117 57 -185.5t152 -68.5 q79 0 139.5 27.5t124.5 85.5l29 -21q-66 -87 -157 -139.5t-189 -52.5q-66 0 -117.5 14t-83.5 38.5t-49.5 44t-32.5 44.5q-60 -63 -148 -102t-172 -39q-138 0 -209 49.5t-71 136.5zM274 182q0 -116 152 -116q134 0 213 141q31 57 74 233q-37 -3 -72.5 -8t-90.5 -16t-99.5 -30 t-86.5 -45.5t-66 -67.5t-24 -91zM883 518q68 4 113 8t103 12.5t95 21.5t71.5 33t51 49.5t16.5 68.5q0 47 -38 82.5t-101 35.5q-101 0 -184.5 -87.5t-126.5 -223.5z" />
<glyph unicode="&#xe7;" horiz-adv-x="796" d="M170 305q0 134 45 250.5t123 199.5q61 65 147 104.5t152 39.5q64 0 109 -13.5t68 -32t35.5 -48.5t14.5 -51t2 -52q0 -38 -32 -65t-74 -27q-25 0 -40 20t-15 46q0 25 10 43q10 17 10 39q0 31 -16.5 50t-33.5 23.5t-36 4.5q-124 0 -212.5 -133t-88.5 -353q0 -86 12 -128 t39 -75q36 -47 103 -47q76 0 139 40.5t131 116.5q14 0 27.5 -10t17.5 -25q-137 -190 -297 -232l-69 -119q25 6 55 6q55 0 88.5 -27t33.5 -73q0 -79 -77 -128.5t-176 -49.5q-47 0 -76 7.5t-68 26.5q7 34 31 54q33 -13 45 -17t30 -8t38 -4q55 0 89 28.5t34 75.5q0 50 -55 50 q-49 0 -95 -13l-9 13l104 168h-5q-61 0 -113 26.5t-84 71.5q-61 85 -61 227z" />
<glyph unicode="&#xe8;" horiz-adv-x="821" d="M170 291q0 81 17.5 163.5t57.5 163t97 142.5t143 100.5t189 38.5q52 0 92 -16t61 -40.5t31 -49t10 -45.5q0 -67 -21 -107q-80 -150 -505 -233q-2 -16 -2 -70q0 -131 40.5 -183.5t115.5 -52.5q76 0 126.5 25.5t135.5 112.5q33 0 47 -33q-176 -227 -383 -227 q-122 0 -187 87t-65 224zM356 486q66 8 125 25.5t117.5 48t93.5 82t35 116.5q0 44 -22 61t-78 17q-184 0 -271 -350zM507 1309l9 22q74 47 142 47q14 0 30 -4l91 -258q7 -24 2 -49q-2 -8 -12.5 -15.5t-22.5 -7.5q-17 0 -51 41z" />
<glyph unicode="&#xe9;" horiz-adv-x="821" d="M170 291q0 81 17.5 163.5t57.5 163t97 142.5t143 100.5t189 38.5q52 0 92 -16t61 -40.5t31 -49t10 -45.5q0 -67 -21 -107q-80 -150 -505 -233q-2 -16 -2 -70q0 -131 40.5 -183.5t115.5 -52.5q76 0 126.5 25.5t135.5 112.5q33 0 47 -33q-176 -227 -383 -227 q-122 0 -187 87t-65 224zM356 486q66 8 125 25.5t117.5 48t93.5 82t35 116.5q0 44 -22 61t-78 17q-184 0 -271 -350zM524 1063q1 5 2 9t3.5 8t3.5 6.5t5 7.5t6 7t7.5 9t8.5 10l204 244q14 4 30 4q63 0 103 -47l1 -23l-281 -223q-47 -39 -69 -39q-11 0 -18.5 8.5t-5.5 18.5z " />
<glyph unicode="&#xea;" horiz-adv-x="821" d="M170 291q0 81 17.5 163.5t57.5 163t97 142.5t143 100.5t189 38.5q52 0 92 -16t61 -40.5t31 -49t10 -45.5q0 -67 -21 -107q-80 -150 -505 -233q-2 -16 -2 -70q0 -131 40.5 -183.5t115.5 -52.5q76 0 126.5 25.5t135.5 112.5q33 0 47 -33q-176 -227 -383 -227 q-122 0 -187 87t-65 224zM349 1073q184 168 265 264h102q44 -106 154 -264l-49 -29q-120 104 -180 185q-114 -97 -257 -185zM356 486q66 8 125 25.5t117.5 48t93.5 82t35 116.5q0 44 -22 61t-78 17q-184 0 -271 -350z" />
<glyph unicode="&#xeb;" horiz-adv-x="821" d="M170 291q0 81 17.5 163.5t57.5 163t97 142.5t143 100.5t189 38.5q52 0 92 -16t61 -40.5t31 -49t10 -45.5q0 -67 -21 -107q-80 -150 -505 -233q-2 -16 -2 -70q0 -131 40.5 -183.5t115.5 -52.5q76 0 126.5 25.5t135.5 112.5q33 0 47 -33q-176 -227 -383 -227 q-122 0 -187 87t-65 224zM356 486q66 8 125 25.5t117.5 48t93.5 82t35 116.5q0 44 -22 61t-78 17q-184 0 -271 -350zM397 1174q0 38 28.5 66t66.5 28t66 -28t28 -66t-28 -66.5t-66 -28.5t-66.5 28.5t-28.5 66.5zM725 1174q0 38 28 66t66 28t66 -28t28 -66t-28 -66.5 t-66 -28.5t-66 28.5t-28 66.5z" />
<glyph unicode="&#xec;" horiz-adv-x="565" d="M219 47q0 24 35 189l96 421q19 77 19 105q0 16 -9.5 28t-27.5 13l-82 6q-22 34 -2 57q22 3 68.5 9t71.5 9t58 6t56 3q42 0 42 -43q0 -16 -6 -44t-18 -76t-18 -74l-92 -402q-23 -100 -23 -117q0 -35 21 -35q16 0 55.5 29.5t77.5 73.5q35 0 47 -35q-148 -190 -285 -190 q-84 0 -84 67zM255 1309l9 22q74 47 143 47q13 0 29 -4l91 -258q7 -24 2 -49q-2 -8 -12.5 -15.5t-22.5 -7.5q-17 0 -51 41z" />
<glyph unicode="&#xed;" horiz-adv-x="565" d="M219 47q0 24 35 189l96 421q19 77 19 105q0 16 -9.5 28t-27.5 13l-82 6q-22 34 -2 57q22 3 68.5 9t71.5 9t58 6t56 3q42 0 42 -43q0 -16 -6 -44t-18 -76t-18 -74l-92 -402q-23 -100 -23 -117q0 -35 21 -35q16 0 55.5 29.5t77.5 73.5q35 0 47 -35q-148 -190 -285 -190 q-84 0 -84 67zM385 1092q2 11 7 20.5t9 14t19 22.5l205 244q14 4 29 4q63 0 103 -47l2 -23l-281 -223q-47 -39 -69 -39q-11 0 -18.5 8.5t-5.5 18.5z" />
<glyph unicode="&#xee;" horiz-adv-x="565" d="M208 1073q184 168 265 264h102q46 -110 153 -264l-49 -29q-117 101 -179 185q-114 -97 -257 -185zM219 47q0 24 35 189l96 421q19 77 19 105q0 16 -9.5 28t-27.5 13l-82 6q-22 34 -2 57q22 3 68.5 9t71.5 9t58 6t56 3q42 0 42 -43q0 -16 -6 -44t-18 -76t-18 -74l-92 -402 q-23 -100 -23 -117q0 -35 21 -35q16 0 55.5 29.5t77.5 73.5q35 0 47 -35q-148 -190 -285 -190q-84 0 -84 67z" />
<glyph unicode="&#xef;" horiz-adv-x="565" d="M219 47q0 24 35 189l96 421q19 77 19 105q0 16 -9.5 28t-27.5 13l-82 6q-22 34 -2 57q22 3 68.5 9t71.5 9t58 6t56 3q42 0 42 -43q0 -16 -6 -44t-18 -76t-18 -74l-92 -402q-23 -100 -23 -117q0 -35 21 -35q16 0 55.5 29.5t77.5 73.5q35 0 47 -35q-148 -190 -285 -190 q-84 0 -84 67zM236 1174q0 38 28 66t66 28t66 -28t28 -66t-28 -66.5t-66 -28.5t-66 28.5t-28 66.5zM563 1174q0 38 28 66t66 28t66.5 -28t28.5 -66t-28.5 -66.5t-66.5 -28.5t-66 28.5t-28 66.5z" />
<glyph unicode="&#xf0;" horiz-adv-x="978" d="M154 305q0 49 14 121q24 102 71 185.5t103.5 136.5t121.5 89.5t124 52t112 15.5q89 0 152 -28q-30 161 -115 307l-258 -150l-28 66l247 143l-24 35q-50 64 -111 119l41 43q105 -65 184 -144l252 146l29 -66l-229 -135l28 -35q170 -226 170 -504q0 -107 -26 -217 q-29 -125 -88.5 -224.5t-136 -161t-162.5 -93t-174 -31.5q-99 0 -168 47t-99 119.5t-30 163.5zM317 322q0 -120 51 -193.5t136 -73.5q32 0 64.5 9.5t73 37t75.5 70t68 116.5t55 169q28 128 28 245q0 6 -1 17t-1 16q-26 46 -73.5 72.5t-110.5 26.5q-60 0 -112.5 -24 t-89.5 -62t-67 -89t-48 -99t-29 -99q-19 -78 -19 -139z" />
<glyph unicode="&#xf1;" horiz-adv-x="1060" d="M182 35q0 9 4 26.5t11.5 45.5t10.5 40l116 510q18 85 18 105q0 16 -9.5 28t-27.5 13l-82 6q-22 34 -2 57q185 27 258 27q42 0 42 -43q0 -26 -12 -84t-31 -110l-7 -19l2 -2q134 157 216 210.5t167 53.5q135 0 135 -164q0 -38 -26 -155l-78 -326q-23 -102 -23 -117 q0 -35 21 -35q16 0 55.5 29.5t77.5 73.5q35 0 47 -35q-148 -190 -291 -190q-84 0 -84 67q0 45 35 189l78 327q26 108 26 139q0 44 -17.5 59t-53.5 15q-94 0 -316 -289l-78 -340q-3 -14 -7.5 -39t-7.5 -39.5t-9.5 -33.5t-14.5 -29.5t-22 -18t-33 -7.5q-88 0 -88 55zM460 1087 q41 93 89 138t112 45q66 0 136 -58q50 -45 97 -45q36 0 63.5 22.5t60.5 84.5l47 -12q-75 -185 -215 -185q-53 0 -121 53q-64 46 -101 46q-39 0 -67 -23.5t-54 -75.5z" />
<glyph unicode="&#xf2;" horiz-adv-x="915" d="M160 332q0 76 19 153.5t60.5 152t99 132.5t142 93.5t183.5 35.5q73 0 126.5 -21t84 -53t48.5 -78.5t23.5 -88t5.5 -91.5q0 -177 -90 -328.5t-227 -220.5q-76 -38 -189 -38q-74 0 -129 27t-84 64.5t-46.5 90t-22 91t-4.5 79.5zM330 348q0 -146 46.5 -219.5t100.5 -73.5 q61 0 118.5 31t98.5 94q49 76 68.5 181t19.5 192q0 126 -31 188q-23 46 -51.5 68t-72.5 22q-77 0 -137 -48.5t-93.5 -124.5t-50 -156t-16.5 -154zM548 1309l9 22q74 47 142 47q14 0 30 -4l91 -258q7 -24 2 -49q-2 -8 -12.5 -15.5t-22.5 -7.5q-17 0 -51 41z" />
<glyph unicode="&#xf3;" horiz-adv-x="915" d="M160 332q0 76 19 153.5t60.5 152t99 132.5t142 93.5t183.5 35.5q73 0 126.5 -21t84 -53t48.5 -78.5t23.5 -88t5.5 -91.5q0 -177 -90 -328.5t-227 -220.5q-76 -38 -189 -38q-74 0 -129 27t-84 64.5t-46.5 90t-22 91t-4.5 79.5zM330 348q0 -146 46.5 -219.5t100.5 -73.5 q61 0 118.5 31t98.5 94q49 76 68.5 181t19.5 192q0 126 -31 188q-23 46 -51.5 68t-72.5 22q-77 0 -137 -48.5t-93.5 -124.5t-50 -156t-16.5 -154zM461 1063q2 11 7 20.5t9 14t19 22.5l204 244q14 4 30 4q63 0 103 -47l2 -23l-281 -223q-47 -39 -70 -39q-11 0 -18 8.5 t-5 18.5z" />
<glyph unicode="&#xf4;" horiz-adv-x="915" d="M160 332q0 76 19 153.5t60.5 152t99 132.5t142 93.5t183.5 35.5q73 0 126.5 -21t84 -53t48.5 -78.5t23.5 -88t5.5 -91.5q0 -177 -90 -328.5t-227 -220.5q-76 -38 -189 -38q-74 0 -129 27t-84 64.5t-46.5 90t-22 91t-4.5 79.5zM330 348q0 -146 46.5 -219.5t100.5 -73.5 q61 0 118.5 31t98.5 94q49 76 68.5 181t19.5 192q0 126 -31 188q-23 46 -51.5 68t-72.5 22q-77 0 -137 -48.5t-93.5 -124.5t-50 -156t-16.5 -154zM374 1073q184 168 265 264h102q46 -110 153 -264l-49 -29q-117 101 -179 185q-114 -97 -257 -185z" />
<glyph unicode="&#xf5;" horiz-adv-x="915" d="M160 332q0 76 19 153.5t60.5 152t99 132.5t142 93.5t183.5 35.5q73 0 126.5 -21t84 -53t48.5 -78.5t23.5 -88t5.5 -91.5q0 -177 -90 -328.5t-227 -220.5q-76 -38 -189 -38q-74 0 -129 27t-84 64.5t-46.5 90t-22 91t-4.5 79.5zM325 1087q41 93 89 138t112 45q66 0 136 -58 q50 -45 97 -45q36 0 63.5 22.5t60.5 84.5l47 -12q-75 -185 -216 -185q-52 0 -120 53q-64 46 -101 46q-39 0 -67 -23.5t-54 -75.5zM330 348q0 -146 46.5 -219.5t100.5 -73.5q61 0 118.5 31t98.5 94q49 76 68.5 181t19.5 192q0 126 -31 188q-23 46 -51.5 68t-72.5 22 q-77 0 -137 -48.5t-93.5 -124.5t-50 -156t-16.5 -154z" />
<glyph unicode="&#xf6;" horiz-adv-x="915" d="M160 332q0 76 19 153.5t60.5 152t99 132.5t142 93.5t183.5 35.5q73 0 126.5 -21t84 -53t48.5 -78.5t23.5 -88t5.5 -91.5q0 -177 -90 -328.5t-227 -220.5q-76 -38 -189 -38q-74 0 -129 27t-84 64.5t-46.5 90t-22 91t-4.5 79.5zM330 348q0 -146 46.5 -219.5t100.5 -73.5 q61 0 118.5 31t98.5 94q49 76 68.5 181t19.5 192q0 126 -31 188q-23 46 -51.5 68t-72.5 22q-77 0 -137 -48.5t-93.5 -124.5t-50 -156t-16.5 -154zM389 1174q0 38 28 66t66 28t66.5 -28t28.5 -66t-28.5 -66.5t-66.5 -28.5t-66 28.5t-28 66.5zM717 1174q0 38 28 66t66 28 t66 -28t28 -66t-28 -66.5t-66 -28.5t-66 28.5t-28 66.5z" />
<glyph unicode="&#xf7;" horiz-adv-x="1079" d="M238 449l24 100h809l-22 -100h-811zM471 147q0 47 38.5 85t88.5 38q35 0 57.5 -21.5t22.5 -55.5q0 -50 -40 -86.5t-87 -36.5q-35 0 -57.5 21.5t-22.5 55.5zM618 813q0 48 38.5 86.5t88.5 38.5q35 0 57.5 -23t22.5 -57q0 -49 -40.5 -86t-86.5 -37q-36 0 -58 22t-22 56z " />
<glyph unicode="&#xf8;" horiz-adv-x="915" d="M129 -43l99 121q-68 91 -68 254q0 76 19 153.5t60.5 152t99 132.5t142 93.5t183.5 35.5q118 0 189 -56l110 134l67 -49l-122 -150q44 -79 44 -211q0 -177 -90 -328.5t-227 -220.5q-76 -38 -189 -38q-93 0 -154 39l-95 -117zM330 348q0 -70 13 -129l415 507l-3.5 7t-3.5 8 q-23 46 -51.5 68t-72.5 22q-77 0 -137 -48.5t-93.5 -124.5t-50 -156t-16.5 -154zM378 126q43 -71 99 -71q61 0 118.5 31t98.5 94q49 76 68.5 181t19.5 192q0 44 -2 67z" />
<glyph unicode="&#xf9;" horiz-adv-x="1067" d="M174 709q70 90 152.5 140t156.5 50q42 0 58 -17.5t16 -50.5q0 -17 -6.5 -47t-19 -76t-17.5 -65l-88 -334q-18 -71 -18 -131q0 -76 61 -76q71 0 149 94.5t205 309.5l60 225q4 16 9.5 46.5t10 47.5t13 36.5t24 28.5t37.5 9q47 0 66.5 -13.5t19.5 -41.5q0 -14 -12.5 -63 t-14.5 -60l-114 -467q-23 -102 -23 -117q0 -35 21 -35q16 0 55.5 29.5t77.5 73.5q35 0 47 -35q-148 -190 -285 -190q-43 0 -59.5 17.5t-16.5 49.5q0 61 35 189l23 79l-6 4q-61 -90 -103.5 -144.5t-93.5 -103t-101.5 -70t-109.5 -21.5t-98 40.5t-39 122.5q0 62 20 138l90 344 q27 102 27 116q0 35 -21 35q-17 0 -60.5 -30t-80.5 -72q-35 0 -47 35zM562 1309l9 22q74 47 143 47q13 0 29 -4l91 -258q8 -26 3 -49q-2 -8 -13 -15.5t-23 -7.5q-17 0 -51 41z" />
<glyph unicode="&#xfa;" horiz-adv-x="1067" d="M174 709q70 90 152.5 140t156.5 50q42 0 58 -17.5t16 -50.5q0 -17 -6.5 -47t-19 -76t-17.5 -65l-88 -334q-18 -71 -18 -131q0 -76 61 -76q71 0 149 94.5t205 309.5l60 225q4 16 9.5 46.5t10 47.5t13 36.5t24 28.5t37.5 9q47 0 66.5 -13.5t19.5 -41.5q0 -14 -12.5 -63 t-14.5 -60l-114 -467q-23 -102 -23 -117q0 -35 21 -35q16 0 55.5 29.5t77.5 73.5q35 0 47 -35q-148 -190 -285 -190q-43 0 -59.5 17.5t-16.5 49.5q0 61 35 189l23 79l-6 4q-61 -90 -103.5 -144.5t-93.5 -103t-101.5 -70t-109.5 -21.5t-98 40.5t-39 122.5q0 62 20 138l90 344 q27 102 27 116q0 35 -21 35q-17 0 -60.5 -30t-80.5 -72q-35 0 -47 35zM631 1063q2 11 7 20.5t9 14t19 22.5l204 244q14 4 30 4q63 0 103 -47l2 -23l-281 -223q-47 -39 -70 -39q-11 0 -18 8.5t-5 18.5z" />
<glyph unicode="&#xfb;" horiz-adv-x="1067" d="M174 709q70 90 152.5 140t156.5 50q42 0 58 -17.5t16 -50.5q0 -17 -6.5 -47t-19 -76t-17.5 -65l-88 -334q-18 -71 -18 -131q0 -76 61 -76q71 0 149 94.5t205 309.5l60 225q4 16 9.5 46.5t10 47.5t13 36.5t24 28.5t37.5 9q47 0 66.5 -13.5t19.5 -41.5q0 -14 -12.5 -63 t-14.5 -60l-114 -467q-23 -102 -23 -117q0 -35 21 -35q16 0 55.5 29.5t77.5 73.5q35 0 47 -35q-148 -190 -285 -190q-43 0 -59.5 17.5t-16.5 49.5q0 61 35 189l23 79l-6 4q-61 -90 -103.5 -144.5t-93.5 -103t-101.5 -70t-109.5 -21.5t-98 40.5t-39 122.5q0 62 20 138l90 344 q27 102 27 116q0 35 -21 35q-17 0 -60.5 -30t-80.5 -72q-35 0 -47 35zM472 1073q184 168 265 264h102q44 -106 154 -264l-49 -29q-120 104 -180 185q-114 -97 -257 -185z" />
<glyph unicode="&#xfc;" horiz-adv-x="1067" d="M174 709q70 90 152.5 140t156.5 50q42 0 58 -17.5t16 -50.5q0 -17 -6.5 -47t-19 -76t-17.5 -65l-88 -334q-18 -71 -18 -131q0 -76 61 -76q71 0 149 94.5t205 309.5l60 225q4 16 9.5 46.5t10 47.5t13 36.5t24 28.5t37.5 9q47 0 66.5 -13.5t19.5 -41.5q0 -14 -12.5 -63 t-14.5 -60l-114 -467q-23 -102 -23 -117q0 -35 21 -35q16 0 55.5 29.5t77.5 73.5q35 0 47 -35q-148 -190 -285 -190q-43 0 -59.5 17.5t-16.5 49.5q0 61 35 189l23 79l-6 4q-61 -90 -103.5 -144.5t-93.5 -103t-101.5 -70t-109.5 -21.5t-98 40.5t-39 122.5q0 62 20 138l90 344 q27 102 27 116q0 35 -21 35q-17 0 -60.5 -30t-80.5 -72q-35 0 -47 35zM487 1174q0 38 28.5 66t66.5 28t66 -28t28 -66t-28 -66.5t-66 -28.5t-66.5 28.5t-28.5 66.5zM815 1174q0 38 28 66t66 28t66.5 -28t28.5 -66t-28.5 -66.5t-66.5 -28.5t-66 28.5t-28 66.5z" />
<glyph unicode="&#xfd;" horiz-adv-x="1030" d="M100 -393q0 45 30 74.5t65 29.5q12 0 36.5 -9.5t34.5 -18.5q13 -11 36 -24t36 -13q23 0 81 64.5t118 162.5q18 40 -18.5 323.5t-82.5 436.5q-18 62 -32 86q-14 23 -57 23q-42 0 -134 -44q-21 21 -27 63q60 44 148.5 91t122.5 47q38 0 61 -34t45 -117q42 -174 60 -326 t28 -360l14 -6q24 34 63 96t66 107l28 45q155 242 155 354q0 58 -43 123q-11 16 -11 42q0 76 95 76q107 0 107 -97q0 -92 -55 -218q-20 -47 -74 -140.5t-105.5 -176t-106.5 -169t-62 -98.5l-93 -143q-98 -151 -210 -243.5t-194 -92.5q-22 0 -48.5 6.5t-51.5 27.5t-25 52z M637 1065q2 11 7 20.5t9 14t19 22.5l205 244q14 4 29 4q63 0 103 -47l2 -23l-281 -223q-47 -39 -70 -39q-11 0 -18 8.5t-5 18.5z" />
<glyph unicode="&#xfe;" horiz-adv-x="1024" d="M-59 -446q0 12 20 16l39 6q49 7 74 29t35 65l223 969q-99 -80 -158 -162l-39 27q59 100 217 225l101 424q14 63 14 102q0 32 -10.5 45t-32.5 13l-64 4q-10 0 -10 10l6 49q63 4 154.5 21.5t132.5 32.5q25 0 25 -21q-22 -82 -52 -215l-81 -367q126 72 264 72q124 0 199 -85 t75 -222q0 -69 -25 -151t-74 -163.5t-113.5 -148t-153 -108t-183.5 -41.5q-105 0 -172 67l-90 -377q-2 -18 -3 -30t6.5 -21.5t12.5 -14.5t16.5 -9t18.5 -5.5t17 -3.5l39 -6q12 -2 12 -16v-41l-4 -4q-139 4 -219 4q-33 0 -86 -3t-90 -6l-37 -3l-4 4v39zM373 137 q53 -86 155 -86q80 0 146.5 37.5t108 95t70 128t40.5 133t12 114.5q0 42 -8 81t-26.5 77.5t-54.5 62t-85 23.5q-114 0 -217 -55z" />
<glyph unicode="&#xff;" horiz-adv-x="1030" d="M100 -393q0 45 30 74.5t65 29.5q12 0 36.5 -9.5t34.5 -18.5q13 -11 36 -24t36 -13q23 0 81 64.5t118 162.5q18 40 -18.5 323.5t-82.5 436.5q-18 62 -32 86q-14 23 -57 23q-42 0 -134 -44q-21 21 -27 63q60 44 148.5 91t122.5 47q38 0 61 -34t45 -117q42 -174 60 -326 t28 -360l14 -6q24 34 63 96t66 107l28 45q155 242 155 354q0 58 -43 123q-11 16 -11 42q0 76 95 76q107 0 107 -97q0 -92 -55 -218q-20 -47 -74 -140.5t-105.5 -176t-106.5 -169t-62 -98.5l-93 -143q-98 -151 -210 -243.5t-194 -92.5q-22 0 -48.5 6.5t-51.5 27.5t-25 52z M485 1174q0 38 28.5 66t66.5 28t66 -28t28 -66t-28 -66.5t-66 -28.5t-66.5 28.5t-28.5 66.5zM813 1174q0 38 28 66t66 28t66 -28t28 -66t-28 -66.5t-66 -28.5t-66 28.5t-28 66.5z" />
<glyph unicode="&#x152;" horiz-adv-x="1665" d="M207 651q37 188 128.5 338t238.5 242t325 92q135 -2 223 -2h154h504l-27 -285l-55 -6q3 76 -34.5 142.5t-107.5 66.5h-301q-37 0 -57 -14.5t-27 -50.5l-81 -424h206q49 0 72.5 21t44.5 69l27 61q4 17 16 17h43q3 0 4.5 -3t-0.5 -6q-7 -27 -26 -92t-27 -102 q-8 -43 -15 -116t-8 -81l-4 -6h-45q-14 0 -14 14l2 64q-2 47 -19 68.5t-65 21.5h-207l-102 -533q-7 -39 7.5 -53t49.5 -14h309q90 0 153.5 67.5t111.5 190.5l51 -10l-115 -328h-676l-202 -4q-180 1 -296.5 88t-155.5 234t-3 333zM370 396.5q9 -114.5 53.5 -187.5t107 -108 t141.5 -35h24q59 0 84 18.5t33 62.5l201 1029q9 46 -9.5 60.5t-76.5 14.5h-70q-75 0 -142 -30t-130.5 -95t-114.5 -181t-82 -275q-28 -159 -19 -273.5z" />
<glyph unicode="&#x153;" horiz-adv-x="1443" d="M160 334q0 76 18.5 153.5t58.5 151.5t97 132t140.5 93t182.5 35q209 0 262 -173q137 173 361 173q52 0 92 -16t61 -40.5t31.5 -49t10.5 -45.5q0 -20 -0.5 -29t-4.5 -33t-12.5 -38.5t-26.5 -39t-43 -42t-65.5 -41t-92 -42t-123.5 -38.5t-159 -37q-2 -16 -2 -70 q0 -131 40.5 -183.5t115.5 -52.5q76 0 126.5 25.5t135.5 112.5q33 0 47 -33q-176 -227 -383 -227q-88 0 -146.5 46.5t-85.5 126.5q-67 -82 -153.5 -127.5t-183.5 -45.5q-66 0 -119.5 26.5t-86 66.5t-54.5 89.5t-30.5 92.5t-8.5 79zM332 350q0 -75 11 -131.5t26.5 -87.5 t38 -50t41.5 -24.5t40 -5.5q66 0 118 40t82 98.5t49.5 131t26.5 130.5t7 104q0 47 -1.5 77.5t-10 71t-23.5 64.5t-44.5 41.5t-71.5 17.5q-68 0 -120.5 -32.5t-83.5 -82t-51 -115.5t-27 -126t-7 -121zM962 486q66 8 125 25.5t117.5 48t93.5 82t35 116.5q0 44 -22 61t-78 17 q-184 0 -271 -350z" />
<glyph unicode="&#x178;" horiz-adv-x="1130" d="M251.5 1295.5q-1.5 21.5 2.5 29.5q114 -4 213 -4q59 0 219 4q3 -6 1.5 -29t-5.5 -30l-68 -6q-48 -4 -54.5 -22t11.5 -58l174 -494h9l323 494q31 44 29 60t-39 20l-66 6q-3 6 -1 29.5t6 29.5q156 -4 186 -4q46 0 164 4q4 -7 0.5 -29t-8.5 -30l-54 -4q-26 -2 -45.5 -9 t-37 -24t-27.5 -29.5t-31 -42.5l-358 -522q-18 -29 -29 -86l-78 -393q-9 -46 11 -68t79 -27l70 -6q4 -8 1.5 -30.5t-7.5 -28.5q-180 4 -260 4q-62 0 -246 -4q-6 14 -4 33.5t8 25.5l63 6q61 6 90 28.5t37 66.5l72 374q7 37 7 52q0 18 -7 36l-188 502q-32 85 -53.5 110 t-71.5 32l-31 4q-5 8 -6.5 29.5zM625 1518q0 45 34.5 76.5t75.5 31.5q34 0 56 -22t22 -54q0 -47 -35.5 -78.5t-75.5 -31.5q-34 0 -55.5 22t-21.5 56zM954 1518q0 47 35 78.5t76 31.5q33 0 55.5 -22.5t22.5 -55.5q0 -45 -35 -76.5t-76 -31.5q-34 0 -56 22t-22 54z" />
<glyph unicode="&#x2c6;" horiz-adv-x="714" d="M327 1104q184 168 265 264h102q46 -110 153 -264l-49 -29q-117 101 -179 185q-114 -97 -257 -185z" />
<glyph unicode="&#x2dc;" horiz-adv-x="598" d="M251 1186q41 93 88.5 137.5t112.5 44.5q67 0 136 -57q50 -45 97 -45q36 0 64 22.5t61 83.5l46 -12q-75 -184 -215 -184q-53 0 -121 53q-63 45 -101 45q-39 0 -66.5 -23t-53.5 -75z" />
<glyph unicode="&#x2000;" horiz-adv-x="840" />
<glyph unicode="&#x2001;" horiz-adv-x="1681" />
<glyph unicode="&#x2002;" horiz-adv-x="840" />
<glyph unicode="&#x2003;" horiz-adv-x="1681" />
<glyph unicode="&#x2004;" horiz-adv-x="560" />
<glyph unicode="&#x2005;" horiz-adv-x="420" />
<glyph unicode="&#x2006;" horiz-adv-x="280" />
<glyph unicode="&#x2007;" horiz-adv-x="280" />
<glyph unicode="&#x2008;" horiz-adv-x="210" />
<glyph unicode="&#x2009;" horiz-adv-x="336" />
<glyph unicode="&#x200a;" horiz-adv-x="93" />
<glyph unicode="&#x2010;" horiz-adv-x="681" d="M158 492q0 24 24.5 56t40.5 32h469q23 0 23 -25t-25 -61.5t-47 -36.5h-465q-20 0 -20 35z" />
<glyph unicode="&#x2011;" horiz-adv-x="681" d="M158 492q0 24 24.5 56t40.5 32h469q23 0 23 -25t-25 -61.5t-47 -36.5h-465q-20 0 -20 35z" />
<glyph unicode="&#x2012;" horiz-adv-x="681" d="M158 492q0 24 24.5 56t40.5 32h469q23 0 23 -25t-25 -61.5t-47 -36.5h-465q-20 0 -20 35z" />
<glyph unicode="&#x2013;" horiz-adv-x="1093" d="M176 487l19 101h933l-18 -101h-934z" />
<glyph unicode="&#x2014;" horiz-adv-x="1519" d="M156 487l18 101h1401l-21 -101h-1398z" />
<glyph unicode="&#x2018;" horiz-adv-x="548" d="M426 1153q0 45 13.5 92t44 97.5t92 90t145.5 54.5q25 -20 17 -47q-79 -18 -146.5 -76t-67.5 -102q0 -25 16 -35.5t48 -18.5q69 -18 69 -84q0 -45 -36 -73.5t-84 -28.5t-79.5 35.5t-31.5 95.5z" />
<glyph unicode="&#x2019;" horiz-adv-x="548" d="M335 1012q79 18 146.5 76t67.5 102q0 17 -10.5 28.5t-21.5 15.5t-32 9q-69 18 -69 84q0 45 36.5 74t84.5 29t79 -36t31 -96q0 -35 -7.5 -71.5t-28 -79t-52.5 -77.5t-85.5 -64t-121.5 -41q-25 20 -17 47z" />
<glyph unicode="&#x201a;" horiz-adv-x="548" d="M97 -223q79 18 146.5 76t67.5 102q0 17 -10 28.5t-21 15.5t-32 9q-70 18 -70 84q0 45 36.5 74t84.5 29t79.5 -36t31.5 -96q0 -35 -7.5 -71.5t-28 -79t-52.5 -77.5t-85.5 -64t-121.5 -41q-25 21 -18 47z" />
<glyph unicode="&#x201c;" horiz-adv-x="768" d="M341 1153q0 45 13.5 92t44 97.5t92 90t145.5 54.5q25 -20 17 -47q-79 -18 -146.5 -76t-67.5 -102q0 -25 16 -35.5t48 -18.5q69 -18 69 -84q0 -45 -36 -73.5t-84 -28.5t-79.5 35.5t-31.5 95.5zM697 1153q0 45 13.5 92t44 97.5t92 90t145.5 54.5q25 -21 18 -47 q-79 -18 -146.5 -76t-67.5 -102q0 -25 16 -35.5t47 -18.5q70 -18 70 -84q0 -45 -36.5 -73.5t-84.5 -28.5t-79.5 35.5t-31.5 95.5z" />
<glyph unicode="&#x201d;" horiz-adv-x="768" d="M302 1012q79 18 146.5 76t67.5 102q0 17 -10.5 28.5t-21.5 15.5t-32 9q-69 18 -69 84q0 45 36 74t84 29t79.5 -36t31.5 -96q0 -35 -7.5 -71.5t-28 -79t-52.5 -77.5t-85.5 -64t-121.5 -41q-25 20 -17 47zM658 1012q79 18 146.5 76t67.5 102q0 17 -10 28.5t-21 15.5t-32 9 q-70 18 -70 84q0 45 36.5 74t84.5 29t79 -36t31 -96q0 -35 -7.5 -71.5t-28 -79t-52.5 -77.5t-85.5 -64t-121.5 -41q-25 20 -17 47z" />
<glyph unicode="&#x201e;" horiz-adv-x="768" d="M27 -225q79 18 146.5 76t67.5 102q0 17 -10 28.5t-21 15.5t-32 9q-70 18 -70 84q0 45 36.5 74t84.5 29t79.5 -36t31.5 -96q0 -35 -7.5 -71.5t-28 -79t-52.5 -77.5t-85.5 -64t-121.5 -41q-25 21 -18 47zM384 -225q79 18 146.5 76t67.5 102q0 17 -10.5 28.5t-21.5 15.5 t-32 9q-69 18 -69 84q0 45 36.5 74t84.5 29t79 -36t31 -96q0 -35 -7.5 -71.5t-28 -79t-52.5 -77.5t-85.5 -64t-121.5 -41q-25 20 -17 47z" />
<glyph unicode="&#x2022;" horiz-adv-x="718" d="M242 584q0 29 6 59q13 55 45 96q32 49 76 82q46 36 92 56q50 20 104 20q58 0 99 -20q45 -23 67 -58q28 -36 37 -82q4 -12 4 -41t-6 -59q-11 -47 -43 -100q-39 -53 -76 -82q-44 -38 -94 -58q-53 -18 -107 -18q-55 0 -96 20q-43 23 -69 58q-30 41 -35 84q-4 14 -4 43z" />
<glyph unicode="&#x202f;" horiz-adv-x="336" />
<glyph unicode="&#x2039;" horiz-adv-x="727" d="M217 401l16 80q249 152 527 400l-21 -111q-197 -216 -350 -330q114 -108 221 -327l-20 -111q-188 286 -373 399z" />
<glyph unicode="&#x203a;" horiz-adv-x="727" d="M139 0l23 111q177 200 350 329q-111 105 -223 328l22 111q185 -281 371 -400l-14 -80q-252 -152 -529 -399z" />
<glyph unicode="&#x205f;" horiz-adv-x="420" />
<glyph unicode="&#x20ac;" horiz-adv-x="897" d="M88 457l4 18l49 51h76q2 15 8 45q9 44 13 60h-86l6 20l49 49h51q72 229 216 363.5t319 134.5q56 0 140 -16.5t111 -14.5q-18 -111 -18 -299l-63 -10q-3 57 -11.5 100.5t-28.5 84t-57.5 62t-91.5 21.5q-114 0 -206 -119.5t-145 -306.5h451l-49 -69h-420q-5 -22 -8 -37 q-7 -34 -12 -68h385l-51 -69h-343q-43 -396 206 -396q42 0 80.5 16.5t64.5 38t56 63t46.5 70t44.5 81.5l60 -15q-17 -43 -69.5 -154t-67.5 -155q-26 2 -110.5 -14.5t-141.5 -16.5q-179 0 -267 129.5t-69 352.5h-121z" />
<glyph unicode="&#x2122;" horiz-adv-x="1628" d="M256 1190l76 184l47 -16q-8 -23 -12 -23h479q-2 0 -2 23l53 16l2 -186l-47 -10q-4 67 -16 85.5t-45 18.5h-91q-16 0 -24 -9t-12 -34l-105 -541q-5 -24 6.5 -36.5t44.5 -12.5h31q9 0 6 -10l-4 -27l-2 -2q-129 2 -170 2l-168 -2l-2 2l4 27q3 10 12 10h31q33 0 50.5 11 t21.5 38l104 543q5 25 0.5 33t-20.5 8h-103q-33 0 -52 -18.5t-50 -85.5zM803 612l4 17q3 14 39 14h28q14 0 35 62q18 68 70 257t78 287v6l2 5q5 34 -12 34h-33q-33 3 -33 13l2 16l14 12h183l123 -542q36 61 102.5 171t121 201.5t99.5 169.5h170l4 -12l-4 -16q-3 -13 -37 -13 h-30q-19 0 -25 -32l-2 -13l-60 -544q-4 -62 13 -62h28q38 0 35 -14l-2 -17l-12 -12q-90 4 -135 4l-135 -4l-11 12l2 17q3 14 39 14h29q15 0 23 47q0 2 1 7.5t1 7.5l43 403l-299 -498q-13 -20 -37 -20q-25 0 -31 20q-66 293 -111 488q-57 -229 -104 -396q0 -2 -1 -6t-1 -6 q-10 -47 4 -47h31q12 0 21.5 -3.5t8.5 -10.5l-2 -17l-8 -12q-80 4 -125 4l-96 -4z" />
<glyph unicode="&#x25fc;" horiz-adv-x="901" d="M0 0v901h901v-901h-901z" />
</font>
</defs>
</svg>
